<?xml version="1.0" encoding="UTF-8"?>
<svg version="1.1" xmlns="http://www.w3.org/2000/svg" width="128" height="128">
<path d="M0 0 C1.12341797 0.7425 1.12341797 0.7425 2.26953125 1.5 C6.33937822 3.73579576 10.57434667 3.76967343 15.1171875 4.08398438 C19.95139742 4.53548134 22.57193062 5.55957722 26 9 C27.44921875 10.9296875 27.44921875 10.9296875 28.6875 12.875 C31.72447967 17.12518565 35.28088791 19.30690587 39.828125 21.7734375 C42 23 42 23 44 25 C44.47494786 27.15464152 44.88114208 29.32468407 45.25 31.5 C46.22964837 36.46422853 47.39383331 40.15491996 50.1875 44.375 C53.25109912 49.04660762 53.79421902 51.44046683 53 57 C52.520542 58.34085712 52.0189049 59.6739097 51.5 61 C49.57898336 66.04046569 49.87433109 71.03660574 50.28710938 76.328125 C50.47395908 80.23290256 50.22142681 81.73376507 47.68359375 84.78515625 C46.79800781 85.51605469 45.91242188 86.24695313 45 87 C40.50234734 91.51881809 38.03990282 95.67763136 36.0546875 101.765625 C34.76418479 104.4995789 33.60534826 105.48945234 31 107 C28.5546875 107.66796875 28.5546875 107.66796875 25.875 108.1875 C21.18519739 109.33653286 18.43363501 111.00851285 14.8125 114.1875 C9.79017469 118.54710194 9.79017469 118.54710194 5.625 118.5625 C2.99298043 118.15408317 0.56811662 117.64202916 -2 117 C-5.37521572 116.81717582 -8.70737856 116.67684464 -12 117.5 C-15.51162645 118.37790661 -18.48388205 118.85922466 -22 118 C-24.5576287 116.15938174 -26.84636844 114.10960464 -29.20703125 112.0234375 C-32.38450597 109.72143484 -35.09363094 108.86586267 -38.875 107.875 C-44.72197515 106.29158703 -44.72197515 106.29158703 -47.5625 103.3125 C-48.35198852 101.49324384 -49.13084235 99.66873095 -49.859375 97.82421875 C-51.96411985 92.69174668 -53.932722 89.63539099 -58.4140625 86.2890625 C-60 85 -60 85 -62 82 C-62.06647141 79.4278453 -62.04102706 76.93964762 -61.9375 74.375 C-61.8054023 68.69479911 -62.21943061 64.27256621 -64.30859375 58.93359375 C-65.52301301 55.53733651 -65.82247506 52.47267247 -65 49 C-63.6304253 46.50203356 -62.09017779 44.16526312 -60.51953125 41.7890625 C-58.29430102 37.70470676 -57.60161436 33.53569125 -56.8359375 28.98046875 C-55.65361526 24.76499272 -53.71335761 22.01448806 -49.921875 19.76953125 C-49.20515625 19.45371094 -48.4884375 19.13789063 -47.75 18.8125 C-42.72498998 16.22939567 -39.92855075 12.61555618 -36.62890625 8.109375 C-35 6 -35 6 -33 5 C-31.18169163 4.78987512 -29.36280969 4.58343571 -27.54125977 4.40356445 C-19.73643946 3.73262078 -19.73643946 3.73262078 -12.5625 0.8125 C-8.06811121 -1.47411886 -4.78950427 -1.4359914 0 0 Z " fill="#F7F8F8" transform="translate(70,6)"/>
<path d="M0 0 C1.67542976 0.28604898 3.34385343 0.61781233 5 1 C5 3.97 5 6.94 5 10 C6.32 10.66 7.64 11.32 9 12 C11.14102513 15.21153769 11.18030836 15.70772975 10.9375 19.3125 C10.81848491 23.5970433 11.72207146 26.29836612 14 30 C14.71285156 29.96519531 15.42570312 29.93039063 16.16015625 29.89453125 C22.11699662 29.72616833 26.84475893 29.66425578 32 33 C35.89479426 37.50418384 38.68818078 41.91952516 39 48 C40.98 48 42.96 48 45 48 C45 48.66 45 49.32 45 50 C42.69 50 40.38 50 38 50 C37.95875 50.99 37.9175 51.98 37.875 53 C37.21473313 57.96723847 34.15706605 61.28296505 31 65 C31.33 65.66 31.66 66.32 32 67 C32.07033769 68.87379605 32.0843022 70.75001102 32.0625 72.625 C32.05347656 73.62789063 32.04445313 74.63078125 32.03515625 75.6640625 C32.02355469 76.43492188 32.01195313 77.20578125 32 78 C27.78585261 77.24941152 26.2384631 75.54524327 23.59375 72.3203125 C20.51889754 67.84368906 18.27709872 62.91756425 16 58 C15.17371094 58.16113281 14.34742188 58.32226562 13.49609375 58.48828125 C9.66669246 59.0487858 5.92286501 59.18384781 2.0625 59.1875 C1.38509766 59.19974609 0.70769531 59.21199219 0.00976562 59.22460938 C-4.73942867 59.23826957 -8.54277234 58.47024589 -13 57 C-13.15855469 57.556875 -13.31710938 58.11375 -13.48046875 58.6875 C-15.85937767 66.46824076 -18.9565253 73.43125965 -26 78 C-26.66 78 -27.32 78 -28 78 C-29.32937738 67.85030924 -25.60849699 60.71147007 -21 52 C-21.59683594 51.71898437 -22.19367187 51.43796875 -22.80859375 51.1484375 C-27.2098055 48.84192011 -31.58501094 45.40380358 -34 41 C-33.91330399 38.13903177 -33.24712851 37.23860684 -31.1875 35.25 C-29 34 -29 34 -25 34 C-23.1484375 35.75 -23.1484375 35.75 -21.375 38 C-20.28924979 39.36548499 -19.17148922 40.70732224 -18 42 C-17.34 42 -16.68 42 -16 42 C-9.18001035 29.97654678 -9.18001035 29.97654678 -7.328125 16.453125 C-6.88685785 13.15412773 -5.5611526 12.02995058 -3 10 C-2.34 10 -1.68 10 -1 10 C-1.01160156 9.36191406 -1.02320313 8.72382813 -1.03515625 8.06640625 C-1.04417969 7.24011719 -1.05320313 6.41382813 -1.0625 5.5625 C-1.07410156 4.73878906 -1.08570313 3.91507813 -1.09765625 3.06640625 C-1 1 -1 1 0 0 Z " fill="#4688F3" transform="translate(62,21)"/>
<path d="M0 0 C5.52593691 3.4406777 8.64211846 8.33308943 10.1875 14.625 C10.22875 15.429375 10.27 16.23375 10.3125 17.0625 C12.2925 17.0625 14.2725 17.0625 16.3125 17.0625 C16.3125 17.7225 16.3125 18.3825 16.3125 19.0625 C14.0025 19.0625 11.6925 19.0625 9.3125 19.0625 C9.27125 20.073125 9.23 21.08375 9.1875 22.125 C8.55122683 26.92152082 5.61714254 29.73764558 2.3125 33.0625 C-0.70599687 30.47618418 -2.09210917 27.52905542 -3.7890625 23.96875 C-4.07099457 23.38081665 -4.35292664 22.7928833 -4.6434021 22.18713379 C-5.23625108 20.9479423 -5.82608817 19.7073059 -6.41308594 18.46533203 C-7.31072733 16.56625033 -8.21699056 14.67148681 -9.125 12.77734375 C-13.5148027 3.58059189 -13.5148027 3.58059189 -14.6875 0.0625 C-10.16607589 -2.19821205 -4.72199938 -1.20050832 0 0 Z " fill="#48DD8B" transform="translate(90.6875,51.9375)"/>
<path d="M0 0 C1.67542976 0.28604898 3.34385343 0.61781233 5 1 C5 3.97 5 6.94 5 10 C6.32 10.66 7.64 11.32 9 12 C11.4915904 15.7373856 11.45793285 17.57331583 11 22 C9.20437595 24.75329021 7.94745078 26.52627461 5 28 C1.12785818 28.43023798 -0.52496371 28.31669086 -3.8125 26.125 C-6.83584667 23.18803467 -6.96391701 22.44742902 -7.3125 18.125 C-7.28328419 14.91126052 -7.13977726 14.18636968 -5.125 11.5 C-3 10 -3 10 -1 10 C-1.01160156 9.36191406 -1.02320313 8.72382813 -1.03515625 8.06640625 C-1.04417969 7.24011719 -1.05320312 6.41382813 -1.0625 5.5625 C-1.07410156 4.73878906 -1.08570313 3.91507813 -1.09765625 3.06640625 C-1 1 -1 1 0 0 Z " fill="#0F384B" transform="translate(62,21)"/>
<path d="M0 0 C0.66 0 1.32 0 2 0 C3.34070318 2.60060504 4.67273354 5.20504916 6 7.8125 C6.3815625 8.55048828 6.763125 9.28847656 7.15625 10.04882812 C7.5171875 10.76103516 7.878125 11.47324219 8.25 12.20703125 C8.58515625 12.8616333 8.9203125 13.51623535 9.265625 14.19067383 C10 16 10 16 10 19 C6.77717587 20.07427471 4.38488847 20.1332963 1 20.125 C-0.051875 20.12757812 -1.10375 20.13015625 -2.1875 20.1328125 C-5 20 -5 20 -8 19 C-7.38188466 14.44684052 -5.53234107 10.71540233 -3.4375 6.6875 C-2.9434668 5.71973633 -2.9434668 5.71973633 -2.43945312 4.73242188 C-1.63175745 3.15214772 -0.81662387 1.57567895 0 0 Z " fill="#F8FAFE" transform="translate(63,50)"/>
<path d="M0 0 C2.4375 0.8125 2.4375 0.8125 4.4375 2.8125 C4.80546448 5.68262296 4.81259409 7.22024618 3.25 9.6875 C1.4375 10.8125 1.4375 10.8125 -1.125 10.625 C-3.5625 9.8125 -3.5625 9.8125 -5.5625 7.8125 C-5.93046448 4.94237704 -5.93759409 3.40475382 -4.375 0.9375 C-2.5625 -0.1875 -2.5625 -0.1875 0 0 Z " fill="#EEF1F2" transform="translate(64.5625,34.1875)"/>
<path d="M0 0 C1.67542976 0.28604898 3.34385343 0.61781233 5 1 C5 3.97 5 6.94 5 10 C2.03 9.505 2.03 9.505 -1 9 C-1.09765625 2.84765625 -1.09765625 2.84765625 -1 1 C-0.67 0.67 -0.34 0.34 0 0 Z " fill="#4486F2" transform="translate(62,21)"/>
</svg>
