<?xml version="1.0" encoding="UTF-8"?>
<svg version="1.1" xmlns="http://www.w3.org/2000/svg" width="700" height="700">
<path d="M0 0 C1.06598419 -0.00701431 2.13196838 -0.01402863 3.23025513 -0.02125549 C6.65354683 -0.03867156 10.07666561 -0.0451082 13.5 -0.046875 C14.66883728 -0.04754974 15.83767456 -0.04822449 17.04193115 -0.04891968 C34.05628534 -0.03329249 50.69071516 0.33106016 67.5 3.203125 C68.5504248 3.37473145 69.60084961 3.54633789 70.68310547 3.72314453 C135.77012568 14.55968308 197.27314185 43.10310521 246.5 87.203125 C247.47839844 88.07066406 248.45679688 88.93820313 249.46484375 89.83203125 C260.78326383 100.02620558 272.02328689 110.59009415 281.4453125 122.58984375 C283.64098803 125.38244247 285.93944077 128.0675119 288.25 130.765625 C334.68432443 186.71576629 364.38084685 262.75603805 364.703125 335.703125 C364.71013931 336.76910919 364.71715363 337.83509338 364.72438049 338.93338013 C364.74179656 342.35667183 364.7482332 345.77979061 364.75 349.203125 C364.75101212 350.95638092 364.75101212 350.95638092 364.75204468 352.74505615 C364.73641749 369.75941034 364.37206484 386.39384016 361.5 403.203125 C361.32839355 404.2535498 361.15678711 405.30397461 360.97998047 406.38623047 C350.14344192 471.47325068 321.60001979 532.97626685 277.5 582.203125 C276.63246094 583.18152344 275.76492188 584.15992188 274.87109375 585.16796875 C264.67691942 596.48638883 254.11303085 607.72641189 242.11328125 617.1484375 C239.32068253 619.34411303 236.6356131 621.64256577 233.9375 623.953125 C177.98735871 670.38744943 101.94708695 700.08397185 29 700.40625 C27.93401581 700.41326431 26.86803162 700.42027863 25.76974487 700.42750549 C22.34645317 700.44492156 18.92333439 700.4513582 15.5 700.453125 C14.33116272 700.45379974 13.16232544 700.45447449 11.95806885 700.45516968 C-5.05628534 700.43954249 -21.69071516 700.07518984 -38.5 697.203125 C-39.5504248 697.03151855 -40.60084961 696.85991211 -41.68310547 696.68310547 C-106.77012568 685.84656692 -168.27314185 657.30314479 -217.5 613.203125 C-218.47839844 612.33558594 -219.45679688 611.46804688 -220.46484375 610.57421875 C-231.78326383 600.38004442 -243.02328689 589.81615585 -252.4453125 577.81640625 C-254.64098803 575.02380753 -256.93944077 572.3387381 -259.25 569.640625 C-305.68432443 513.69048371 -335.38084685 437.65021195 -335.703125 364.703125 C-335.71013931 363.63714081 -335.71715363 362.57115662 -335.72438049 361.47286987 C-335.74179656 358.04957817 -335.7482332 354.62645939 -335.75 351.203125 C-335.75101212 349.44986908 -335.75101212 349.44986908 -335.75204468 347.66119385 C-335.73641749 330.64683966 -335.37206484 314.01240984 -332.5 297.203125 C-332.32839355 296.1527002 -332.15678711 295.10227539 -331.97998047 294.02001953 C-321.14344192 228.93299932 -292.60001979 167.42998315 -248.5 118.203125 C-247.63246094 117.22472656 -246.76492187 116.24632813 -245.87109375 115.23828125 C-235.67691942 103.91986117 -225.11303085 92.67983811 -213.11328125 83.2578125 C-210.32068253 81.06213697 -207.6356131 78.76368423 -204.9375 76.453125 C-148.98735871 30.01880057 -72.94708695 0.32227815 0 0 Z " fill="#FEFEFE" transform="translate(335.5,-0.203125)"/>
<path d="M0 0 C3.27204536 -0.06439827 5.91261511 0.20218447 8.96411133 1.38989258 C12.58172987 2.72562865 16.12785308 3.59839272 19.90161133 4.38989258 C25.52990899 5.7449859 28.86424927 7.89258191 32.77661133 12.07739258 C34.59719556 13.91664947 36.43946192 15.6917419 38.33911133 17.45239258 C43.88833305 23.42847751 43.18116015 30.16542027 43.20214844 37.93017578 C43.21390287 39.97856516 43.26299115 42.02379165 43.3137207 44.0715332 C43.44880838 55.07432063 41.47539546 65.41618872 34.83911133 74.51489258 C24.85790749 84.60435243 9.79082304 88.15011215 -3.90234375 88.27294922 C-7.67855177 88.2613969 -11.44868517 88.18501348 -15.22338867 88.07739258 C-16.87836224 84.76744545 -16.32423202 81.08616257 -16.28588867 77.45239258 C-16.28137695 76.6505957 -16.27686523 75.84879883 -16.2722168 75.02270508 C-16.26042035 73.04090252 -16.24248472 71.05913824 -16.22338867 69.07739258 C-17.44413086 69.36614258 -18.66487305 69.65489258 -19.92260742 69.95239258 C-44.24973808 75.52271602 -44.24973808 75.52271602 -51.47338867 71.07739258 C-53.71696169 67.2312674 -53.92852056 64.50041429 -54.22338867 60.07739258 C-54.55338867 59.74739258 -54.88338867 59.41739258 -55.22338867 59.07739258 C-55.46067681 52.55196885 -55.46067681 52.55196885 -54.22338867 50.07739258 C-53.42958971 43.5708437 -54.55874889 40.51524516 -58.22338867 35.07739258 C-58.37026323 27.88053925 -55.14101333 18.84991264 -50.77026367 13.19848633 C-47.6102965 10.41272579 -44.15294603 9.35876998 -40.22338867 8.07739258 C-37.99360871 6.09837684 -37.99360871 6.09837684 -36.22338867 4.07739258 C-33.26674348 2.59906998 -30.4810913 3.01706475 -27.22338867 3.07739258 C-27.22338867 2.41739258 -27.22338867 1.75739258 -27.22338867 1.07739258 C-23.2026503 0.90838222 -19.18178478 0.7426043 -15.16088867 0.57739258 C-14.0271582 0.52969727 -12.89342773 0.48200195 -11.7253418 0.43286133 C-7.81734023 0.27335106 -3.90886356 0.13606124 0 0 Z " fill="#FCCCDE" transform="translate(78.223388671875,310.922607421875)"/>
<path d="M0 0 C5.94371215 -0.49530935 10.03629953 0.62904737 15 4 C16.38232443 5.62626404 17.71937515 7.2925002 19 9 C20.546875 9.99 20.546875 9.99 22.125 11 C25.49191738 13.34220339 25.89120119 14.12173568 27 18 C27.40532263 21.29454544 27.50665173 24.55809836 27.5625 27.875 C27.63694336 29.18404297 27.63694336 29.18404297 27.71289062 30.51953125 C27.7886456 35.31734639 27.37209868 38.24919521 24.015625 41.80859375 C20.07570871 45.20117494 15.79449985 47.80448671 11.1875 50.1875 C10.36580322 50.61530762 9.54410645 51.04311523 8.69750977 51.48388672 C-2.48317537 57.03739804 -14.50098807 59.80638787 -27 59 C-27 55.7 -27 52.4 -27 49 C-22.05 48.505 -22.05 48.505 -17 48 C-20.3 47.67 -23.6 47.34 -27 47 C-27.8759457 39.26247962 -25.01272428 34.49679169 -21 28 C-20.01 28 -19.02 28 -18 28 C-17.3291288 29.6232687 -16.66342971 31.24867578 -16 32.875 C-15.62875 33.77992188 -15.2575 34.68484375 -14.875 35.6171875 C-14 38 -14 38 -14 40 C-12.02 40 -10.04 40 -8 40 C-8.763125 39.649375 -9.52625 39.29875 -10.3125 38.9375 C-13.72609039 36.47653949 -15.04326181 33.997534 -16 30 C-16.94858164 21.43677674 -16.94858164 21.43677674 -14.80078125 18.18359375 C-12.28803105 16.53204644 -10.75006532 16.89284781 -7.8125 17.3125 C-6.91144531 17.43238281 -6.01039062 17.55226563 -5.08203125 17.67578125 C-4.39496094 17.78277344 -3.70789063 17.88976562 -3 18 C-3.33 17.34 -3.66 16.68 -4 16 C-7.02934491 15.34227572 -7.02934491 15.34227572 -10 15 C-9.2575 14.319375 -8.515 13.63875 -7.75 12.9375 C-4.04139731 9.23943311 -1.65893134 4.97679401 0 0 Z " fill="#FCCCDE" transform="translate(92,318)"/>
<path d="M0 0 C25 0 25 0 33 7 C34.19211438 10.57634313 34.25926574 13.24064683 34 17 C33.46375 17.886875 32.9275 18.77375 32.375 19.6875 C31.694375 20.8321875 31.694375 20.8321875 31 22 C31.75179117 24.48091087 33.00114798 26.00151534 34.5625 28.0625 C37.39158303 31.87561191 37.37746712 35.39490117 37 40 C35.97335304 42.86139721 34.79525663 45.53827686 33 48 C31.515 48.495 31.515 48.495 30 49 C29.67 49.99 29.34 50.98 29 52 C19.61638196 54.34590451 9.67241209 53 0 53 C0 35.51 0 18.02 0 0 Z " fill="#FCBED5" transform="translate(370,320)"/>
<path d="M0 0 C3.3 0 6.6 0 10 0 C10.44988281 0.89976562 10.89976562 1.79953125 11.36328125 2.7265625 C11.66814453 3.33612793 11.97300781 3.94569336 12.28710938 4.57373047 C12.98033678 5.96051539 13.67303098 7.34756695 14.36523438 8.73486328 C16.55774477 13.12655693 18.76311974 17.51141405 20.98046875 21.890625 C21.4808667 22.88239746 21.98126465 23.87416992 22.49682617 24.89599609 C23.49252222 26.86927581 24.49134445 28.84098143 25.4934082 30.81103516 C25.9493335 31.71644043 26.40525879 32.6218457 26.875 33.5546875 C27.28492188 34.36405762 27.69484375 35.17342773 28.1171875 36.00732422 C29 38 29 38 29 40 C29.66 40 30.32 40 31 40 C31.27618164 39.12311523 31.55236328 38.24623047 31.83691406 37.34277344 C32.91198985 34.25294605 34.1508933 31.43983423 35.609375 28.515625 C36.37121094 26.98808594 36.37121094 26.98808594 37.1484375 25.4296875 C37.67695313 24.38039063 38.20546875 23.33109375 38.75 22.25 C39.51957031 20.69925781 39.51957031 20.69925781 40.3046875 19.1171875 C41.33479873 17.06214148 42.38218708 15.01565847 43.44726562 12.97851562 C44.47474114 11.00757203 45.46399227 9.01618237 46.41210938 7.00585938 C46.87939453 6.09126953 47.34667969 5.17667969 47.828125 4.234375 C48.22418945 3.41678711 48.62025391 2.59919922 49.02832031 1.75683594 C51 0 51 0 60 0 C60 17.49 60 34.98 60 53 C57.69 53 55.38 53 53 53 C52.67 40.46 52.34 27.92 52 15 C48.968125 21.06375 48.968125 21.06375 45.875 27.25 C41.58333333 35.83333333 37.29166667 44.41666667 33 53 C31.02 53 29.04 53 27 53 C26.70867187 52.38181396 26.41734375 51.76362793 26.1171875 51.12670898 C24.74862999 48.22847643 23.37432161 45.33300345 22 42.4375 C21.54238281 41.46619141 21.08476562 40.49488281 20.61328125 39.49414062 C16.65184002 31.16426079 12.35534428 23.16627053 8 15 C7.67 27.21 7.34 39.42 7 52 C4.69 52 2.38 52 0 52 C0 34.84 0 17.68 0 0 Z " fill="#FCBBD4" transform="translate(157,320)"/>
<path d="M0 0 C4.94880408 2.61841486 8.92428648 6.33340018 12 11 C13.07074392 16.86610011 13.43135551 23.31669594 10.56640625 28.6875 C7.02814581 32.82688426 3.67738953 35.75263249 -1.875 36.265625 C-2.90625 36.26046875 -3.9375 36.2553125 -5 36.25 C-6.546875 36.25773437 -6.546875 36.25773437 -8.125 36.265625 C-11 36 -11 36 -15 34 C-15 40.6 -15 47.2 -15 54 C-17.31 54 -19.62 54 -22 54 C-22 36.51 -22 19.02 -22 1 C-19.69 1 -17.38 1 -15 1 C-15 1.66 -15 2.32 -15 3 C-14.195625 2.505 -13.39125 2.01 -12.5625 1.5 C-8.15142449 -0.35729495 -4.71277938 -0.9888065 0 0 Z " fill="#FCBDD5" transform="translate(672,337)"/>
<path d="M0 0 C1.65 0 3.3 0 5 0 C9.38243783 9.31217981 13.30325193 18.80998531 17.21313477 28.32763672 C18.32237836 31.02401255 19.43944115 33.71706872 20.55664062 36.41015625 C21.26350086 38.12740665 21.96989828 39.84484765 22.67578125 41.5625 C23.01007645 42.36558594 23.34437164 43.16867187 23.688797 43.99609375 C26 49.65705096 26 49.65705096 26 53 C23.36 53 20.72 53 18 53 C17.16235732 51.04350603 16.33000941 49.08474444 15.5 47.125 C15.0359375 46.03445313 14.571875 44.94390625 14.09375 43.8203125 C13 41 13 41 13 39 C2.605 39.495 2.605 39.495 -8 40 C-9.65 44.29 -11.3 48.58 -13 53 C-15.64 53 -18.28 53 -21 53 C-20.38311943 47.44020938 -18.44190758 42.76016222 -16.2890625 37.65625 C-15.9202597 36.76893188 -15.55145691 35.88161377 -15.17147827 34.96740723 C-14.39268387 33.09698468 -13.61085097 31.22782473 -12.82617188 29.35986328 C-11.63010462 26.51215356 -10.44315095 23.66078365 -9.2578125 20.80859375 C-8.49792641 18.98675777 -7.73752673 17.16513591 -6.9765625 15.34375 C-6.62332916 14.49671509 -6.27009583 13.64968018 -5.90615845 12.77697754 C-4.0800891 8.43519784 -2.1682031 4.18582479 0 0 Z " fill="#FCBDD5" transform="translate(293,320)"/>
<path d="M0 0 C4.61674027 2.91583596 8.64304282 7.30412845 10.375 12.5 C11.2152648 18.58591789 10.35179637 22.74079325 6.80859375 27.76953125 C4.87870422 30.09907093 2.93355336 31.88407156 0.375 33.5 C-0.615 33.5 -1.605 33.5 -2.625 33.5 C-2.625 34.16 -2.625 34.82 -2.625 35.5 C-9.04577366 36.09207954 -13.59248601 35.79812106 -18.93359375 32 C-22.82241412 28.55125399 -25.25542427 24.47244476 -25.8984375 19.30078125 C-26.12520481 13.7449821 -25.58923389 9.77135646 -22.30078125 5.1953125 C-16.19872789 -0.97786036 -8.11636035 -1.5459734 0 0 Z " fill="#FCBDD5" transform="translate(632.625,338.5)"/>
<path d="M0 0 C4.84107002 1.64620769 8.77205682 4.18137122 13 7 C11.95125002 9.62187494 11.35068687 10.79371361 8.875 12.25 C8.25625 12.4975 7.6375 12.745 7 13 C6.5875 12.54625 6.175 12.0925 5.75 11.625 C3.93591905 9.94049626 2.24714373 9.00734029 0 8 C0 7.34 0 6.68 0 6 C-3.63 6 -7.26 6 -11 6 C-11 6.66 -11 7.32 -11 8 C-11.680625 8.5775 -12.36125 9.155 -13.0625 9.75 C-15.33305868 11.89190393 -15.33305868 11.89190393 -15 15.0625 C-13.82766801 18.50622522 -13.06721362 19.15967183 -10 21 C-7.95438333 21.49291968 -5.88783582 21.90287095 -3.8125 22.25 C2.80153418 23.64439052 7.24866873 26.21407166 12 31 C14.19409734 35.38819469 13.39700027 40.70974911 12 45.25 C9.18937408 49.11461063 6.50955669 51.34155583 2 53 C-6.46215723 54.25567494 -14.40681502 52.95533503 -22 49 C-23.8046875 47.36328125 -23.8046875 47.36328125 -25 46 C-24 44 -23 42 -22 40 C-19.49630027 41.11275544 -17.8453983 42.14787989 -15.84375 44.0625 C-12.24457826 46.51468294 -9.37383291 46.45831513 -5.1875 46.25 C-4.49462891 46.23195313 -3.80175781 46.21390625 -3.08789062 46.1953125 C-1.39132336 46.14851064 0.30452476 46.07677624 2 46 C2 45.34 2 44.68 2 44 C2.66 44 3.32 44 4 44 C4.08131463 42.56344146 4.13933559 41.1255517 4.1875 39.6875 C4.22230469 38.88699219 4.25710938 38.08648437 4.29296875 37.26171875 C4.16854346 34.98399021 4.16854346 34.98399021 2.8828125 33.33203125 C0.29521755 31.50138835 -2.26335423 30.84405419 -5.3125 30 C-11.81742495 28.1867805 -17.53985809 26.28609412 -22 21 C-23.35593231 16.93220306 -23.53075585 13.25331741 -23 9 C-17.75951344 -1.10665266 -10.369447 -1.15683486 0 0 Z " fill="#FCBDD5" transform="translate(253,320)"/>
<path d="M0 0 C4.31927908 2.27499121 6.96782137 5.32270972 9.5 9.4375 C10 12 10 12 10 20 C1.09 20 -7.82 20 -17 20 C-14.98848737 26.77489892 -14.98848737 26.77489892 -12 28 C-10.16962713 28.12145993 -8.33435867 28.17543185 -6.5 28.1875 C-5.5203125 28.20167969 -4.540625 28.21585937 -3.53125 28.23046875 C-0.830082 28.25680034 -0.830082 28.25680034 1 26 C3 26.125 3 26.125 5 27 C6.25 29.0625 6.25 29.0625 7 31 C2.37975567 34.59352337 -0.47794973 35.54895976 -6.5 35.5 C-8.40265625 35.51546875 -8.40265625 35.51546875 -10.34375 35.53125 C-15.37307049 34.80049403 -18.45895093 32.87434573 -21.6796875 28.95703125 C-24.67928782 23.57539537 -26.17940553 19.15911775 -25 13 C-23.21892331 7.65676994 -20.76947651 4.13781349 -16 1 C-11.2592766 -1.3703617 -5.1138994 -0.68819434 0 0 Z " fill="#FCBED6" transform="translate(516,338)"/>
<path d="M0 0 C3.375 1.8125 3.375 1.8125 6 4 C6.54309814 4.40323486 7.08619629 4.80646973 7.64575195 5.22192383 C9.7191488 7.94421502 9.33718332 10.26167323 9.29296875 13.63671875 C9.28330078 14.93544922 9.27363281 16.23417969 9.26367188 17.57226562 C9.23860585 18.94401639 9.21321101 20.31576118 9.1875 21.6875 C9.1724502 23.07094924 9.1587623 24.45441401 9.14648438 25.83789062 C9.11107223 29.22565207 9.06168054 32.61263139 9 36 C6.69 36 4.38 36 2 36 C1.67 35.34 1.34 34.68 1 34 C0.45085937 34.32097656 -0.09828125 34.64195312 -0.6640625 34.97265625 C-4.96352876 36.86355863 -9.40756531 36.62382783 -14 36 C-17.13233869 34.74949269 -17.81328965 33.81970545 -20 31 C-21.60403159 26.25764574 -21.52406867 23.06754729 -19.3125 18.5625 C-16.01805163 14.91189505 -14.2986161 14.06907532 -9.328125 13.8046875 C-7.96861204 13.81788665 -6.60916668 13.84159893 -5.25 13.875 C-4.55261719 13.88402344 -3.85523438 13.89304687 -3.13671875 13.90234375 C-1.42433042 13.92580112 0.28788004 13.96166896 2 14 C1.67 12.35 1.34 10.7 1 9 C-3.52741172 7.49086276 -8.06426798 7.22570719 -12.5 9 C-12.995 9.33 -13.49 9.66 -14 10 C-14.99 9.34 -15.98 8.68 -17 8 C-16.9375 6.25 -16.9375 6.25 -16 4 C-10.8801658 0.16012435 -6.37044761 -1.1719767 0 0 Z " fill="#FCBED6" transform="translate(436,337)"/>
<path d="M0 0 C0.66 0 1.32 0 2 0 C2 2.31 2 4.62 2 7 C2.99 7 3.98 7 5 7 C7.60250805 10.37362154 8.36265043 12.76907828 8 17 C12.43658969 14.78170516 14.67773363 12.38650314 17 8 C17.33594133 4.74822148 17.33594133 4.74822148 17 2 C17.66 2 18.32 2 19 2 C19.7595682 9.59568204 19.7595682 9.59568204 17.9921875 12.86328125 C15.90109468 15.3863663 13.72430375 17.1837975 11 19 C12.98 19.33 14.96 19.66 17 20 C17 20.99 17 21.98 17 23 C16.30132812 22.97679687 15.60265625 22.95359375 14.8828125 22.9296875 C13.97273438 22.91164063 13.06265625 22.89359375 12.125 22.875 C11.22007813 22.85179687 10.31515625 22.82859375 9.3828125 22.8046875 C6.81193006 22.75675164 6.81193006 22.75675164 5 25 C4.03652282 31.02733397 4.96128843 36.03614586 7.734375 41.40625 C9.26167014 43.32951054 10.75686761 44.0575074 13 45 C10.6875 45.6875 10.6875 45.6875 8 46 C5.44707237 43.99595181 4.3805692 41.96087049 3.3125 38.9375 C3.06113281 38.24527344 2.80976562 37.55304688 2.55078125 36.83984375 C2 35 2 35 2 33 C1.01 33 0.02 33 -1 33 C-1.4021875 34.3303125 -1.4021875 34.3303125 -1.8125 35.6875 C-3 39 -3 39 -4.5625 41.375 C-6.51639956 44.9429905 -6.65756828 47.95930572 -7 52 C-6.38253906 51.98839844 -5.76507813 51.97679687 -5.12890625 51.96484375 C0.67525544 51.90300337 6.24338088 52.25721044 12 53 C12 53.33 12 53.66 12 54 C5.73 54 -0.54 54 -7 54 C-7 56.97 -7 59.94 -7 63 C-7.33 63 -7.66 63 -8 63 C-8 60.36 -8 57.72 -8 55 C-9.32 54.67 -10.64 54.34 -12 54 C-11.01 53.505 -11.01 53.505 -10 53 C-9.34444881 50.47266765 -9.34444881 50.47266765 -9 48 C-9.66 47.67 -10.32 47.34 -11 47 C-10.34 47 -9.68 47 -9 47 C-8.83177734 45.92685547 -8.83177734 45.92685547 -8.66015625 44.83203125 C-7.95543995 41.80884002 -6.86712202 39.43677312 -5.4375 36.6875 C-4.98246094 35.80449219 -4.52742188 34.92148437 -4.05859375 34.01171875 C-3.70925781 33.34785156 -3.35992187 32.68398438 -3 32 C-3.66 32 -4.32 32 -5 32 C-5 31.34 -5 30.68 -5 30 C-5.7425 29.773125 -6.485 29.54625 -7.25 29.3125 C-10.5425747 27.7410439 -11.97497109 26.00004284 -14 23 C-14 22.34 -14 21.68 -14 21 C-15.32 21 -16.64 21 -18 21 C-17.95875 22.093125 -17.9175 23.18625 -17.875 24.3125 C-18 28 -18 28 -20 31 C-22.0234375 31.36328125 -22.0234375 31.36328125 -24.375 31.3125 C-25.14585938 31.30863281 -25.91671875 31.30476563 -26.7109375 31.30078125 C-29.18002469 30.97634488 -30.85179272 30.23105029 -33 29 C-32.67 28.34 -32.34 27.68 -32 27 C-31.34 27 -30.68 27 -30 27 C-29.67 26.01 -29.34 25.02 -29 24 C-28.67 24.99 -28.34 25.98 -28 27 C-28.33 27.66 -28.66 28.32 -29 29 C-26.36 29 -23.72 29 -21 29 C-21 25.04 -21 21.08 -21 17 C-19.35 17.33 -17.7 17.66 -16 18 C-15.855625 17.2575 -15.71125 16.515 -15.5625 15.75 C-14.30769231 9.61538462 -14.30769231 9.61538462 -13 7 C-12.34 7 -11.68 7 -11 7 C-10.34 6.67 -9.68 6.34 -9 6 C-9 6.99 -9 7.98 -9 9 C-6.36 8.34 -3.72 7.68 -1 7 C-0.67 4.69 -0.34 2.38 0 0 Z " fill="#FCC8DC" transform="translate(72,313)"/>
<path d="M0 0 C2.31 0 4.62 0 7 0 C7.33 9.57 7.66 19.14 8 29 C9.753125 27.185 11.50625 25.37 13.3125 23.5 C16.47835869 20.41661067 18.86286651 18.25588925 23.24609375 17.26953125 C25.91271748 17.30767541 28.38452836 17.49029194 31 18 C31 18.66 31 19.32 31 20 C29.28667246 21.58533702 27.50310953 23.09541215 25.6875 24.5625 C24.70136719 25.36816406 23.71523438 26.17382812 22.69921875 27.00390625 C20 29 20 29 17 30 C19.53095399 35.69895081 23.03693538 39.7449486 27.1484375 44.3203125 C29.66222196 47.18548618 31.27672682 49.25854921 32 53 C25.14269368 53.87952407 25.14269368 53.87952407 22.21484375 51.62597656 C20.51357736 49.69821627 18.99576667 47.71602075 17.5 45.625 C16.96375 44.92632812 16.4275 44.22765625 15.875 43.5078125 C12 38.36750638 12 38.36750638 12 36 C9.89970173 37.019062 9.89970173 37.019062 8 39 C7.29727224 42.41627532 7.29727224 42.41627532 7.25 46.1875 C7.19328125 47.45980469 7.1365625 48.73210937 7.078125 50.04296875 C7.05234375 51.01878906 7.0265625 51.99460937 7 53 C4.69 53 2.38 53 0 53 C0 35.51 0 18.02 0 0 Z " fill="#FCBCD4" transform="translate(455,320)"/>
<path d="M0 0 C2.31 0 4.62 0 7 0 C7.33 7.26 7.66 14.52 8 22 C8.66 21.01 9.32 20.02 10 19 C12.5625 18.3125 12.5625 18.3125 16 18 C16.72058594 17.91234375 17.44117188 17.8246875 18.18359375 17.734375 C21.55124403 17.48449876 23.98977602 17.33493588 26.875 19.234375 C30.1935405 22.45718837 31.9140408 24.93494577 32.11352539 29.72729492 C32.10828857 30.80084229 32.10305176 31.87438965 32.09765625 32.98046875 C32.09443359 34.14384766 32.09121094 35.30722656 32.08789062 36.50585938 C32.07532227 38.32827148 32.07532227 38.32827148 32.0625 40.1875 C32.05798828 41.41404297 32.05347656 42.64058594 32.04882812 43.90429688 C32.03703065 46.93624668 32.02056921 49.96809906 32 53 C29.69 53 27.38 53 25 53 C24.98018066 52.29391602 24.96036133 51.58783203 24.93994141 50.86035156 C24.84459585 47.65653006 24.73495487 44.45335199 24.625 41.25 C24.5940625 40.13882813 24.563125 39.02765625 24.53125 37.8828125 C24.49257813 36.81289063 24.45390625 35.74296875 24.4140625 34.640625 C24.36693115 33.16384277 24.36693115 33.16384277 24.31884766 31.65722656 C23.99897742 28.99147799 23.35631379 27.29383595 22 25 C20.2312602 24.86486708 18.45956945 24.76794414 16.6875 24.6875 C15.70136719 24.62949219 14.71523438 24.57148438 13.69921875 24.51171875 C10.82623088 24.7150745 10.82623088 24.7150745 9.36328125 27.18554688 C7.8990206 30.20846894 7.58144759 32.18417615 7.48828125 35.51953125 C7.43510742 37.0519043 7.43510742 37.0519043 7.38085938 38.61523438 C7.35830078 39.67033203 7.33574219 40.72542969 7.3125 41.8125 C7.27833984 42.88693359 7.24417969 43.96136719 7.20898438 45.06835938 C7.12673357 47.71213533 7.05750791 50.35558921 7 53 C4.69 53 2.38 53 0 53 C0 35.51 0 18.02 0 0 Z " fill="#FCBBD4" transform="translate(567,320)"/>
<path d="M0 0 C-0.26859723 6.44633361 -2.51262224 10.38123505 -7 15 C-9.21099338 16.65824504 -11.50723045 17.82285882 -14 19 C-14.58265625 19.33644531 -15.1653125 19.67289062 -15.765625 20.01953125 C-26.79098675 26.20392534 -38.72491566 26.42545222 -51 26 C-51 22.04 -51 18.08 -51 14 C-49.36933594 13.92523438 -47.73867187 13.85046875 -46.05859375 13.7734375 C-30.60413991 12.90703172 -16.64175636 11.7528941 -4.515625 1.1015625 C-3 0 -3 0 0 0 Z " fill="#FEFCFD" transform="translate(116,371)"/>
<path d="M0 0 C0.65548035 4.07854442 1.00231235 6.58752731 -1.44140625 10.03125 C-13.79869224 21.8492237 -32.18823923 28.15431209 -49.125 28.25 C-50.40375 28.1675 -51.6825 28.085 -53 28 C-53 24.7 -53 21.4 -53 18 C-51.69546875 18.06960938 -50.3909375 18.13921875 -49.046875 18.2109375 C-39.31371527 18.56966491 -31.9380342 18.7325201 -23.5078125 13.41015625 C-20.65513215 11.80607898 -18.23070676 11.37204932 -15 11 C-15 10.34 -15 9.68 -15 9 C-13.61748642 8.02212454 -12.22608829 7.05442612 -10.79296875 6.15234375 C-8.88375325 4.92528803 -7.07403748 3.59986422 -5.25 2.25 C-2 0 -2 0 0 0 Z " fill="#FEFCFD" transform="translate(118,349)"/>
<path d="M0 0 C1.90520822 0.94247002 3.74951102 2.00622065 5.578125 3.08984375 C5.578125 3.74984375 5.578125 4.40984375 5.578125 5.08984375 C3.578125 6.71484375 3.578125 6.71484375 1.578125 8.08984375 C1.01609375 7.77273438 0.4540625 7.455625 -0.125 7.12890625 C-2.57383817 6.0210985 -4.50575355 5.70008976 -7.171875 5.46484375 C-8.37070312 5.35269531 -8.37070312 5.35269531 -9.59375 5.23828125 C-10.19703125 5.18929688 -10.8003125 5.1403125 -11.421875 5.08984375 C-11.421875 7.06984375 -11.421875 9.04984375 -11.421875 11.08984375 C-10.596875 11.35796875 -9.771875 11.62609375 -8.921875 11.90234375 C-7.766875 12.29421875 -6.611875 12.68609375 -5.421875 13.08984375 C-4.74898437 13.30769531 -4.07609375 13.52554687 -3.3828125 13.75 C0.73891538 15.16250225 4.0711668 16.32940645 6.578125 20.08984375 C7.23797751 23.58706205 7.16771977 25.86291375 5.61328125 29.09765625 C3.45018918 32.19495331 1.76896385 33.83790068 -1.98828125 34.6328125 C-8.07078458 34.81046559 -12.9141418 33.58391161 -18.421875 31.08984375 C-18.109375 29.21484375 -18.109375 29.21484375 -17.421875 27.08984375 C-16.431875 26.42984375 -15.441875 25.76984375 -14.421875 25.08984375 C-13.431875 25.74984375 -12.441875 26.40984375 -11.421875 27.08984375 C-8.90602609 27.33135148 -8.90602609 27.33135148 -6.234375 27.21484375 C-4.88279297 27.18777344 -4.88279297 27.18777344 -3.50390625 27.16015625 C-2.81683594 27.13695312 -2.12976563 27.11375 -1.421875 27.08984375 C-1.03968733 25.43369718 -0.70792398 23.76527351 -0.421875 22.08984375 C-2.01931963 20.49239912 -3.97892494 20.58466077 -6.171875 20.21484375 C-10.14354871 19.44887811 -13.17647057 18.62531596 -16.421875 16.08984375 C-19.10474204 12.06554318 -19.33222708 8.81539864 -18.421875 4.08984375 C-13.67522763 -2.03083312 -7.14179376 -2.68393217 0 0 Z " fill="#FCBED5" transform="translate(551.421875,338.91015625)"/>
<path d="M0 0 C-1.83499255 4.74039741 -3.92247786 9.36265294 -6 14 C-6.56509277 14.05534912 -7.13018555 14.11069824 -7.71240234 14.16772461 C-10.26702332 14.42024372 -12.82099815 14.67879723 -15.375 14.9375 C-16.70917969 15.06801758 -16.70917969 15.06801758 -18.0703125 15.20117188 C-18.92109375 15.28818359 -19.771875 15.37519531 -20.6484375 15.46484375 C-21.43395996 15.543396 -22.21948242 15.62194824 -23.02880859 15.70288086 C-25.07134803 15.90696298 -25.07134803 15.90696298 -27 17 C-28.9753988 17.14779962 -30.95678924 17.22118966 -32.9375 17.25 C-33.99839844 17.27578125 -35.05929688 17.3015625 -36.15234375 17.328125 C-39 17 -39 17 -40.86328125 15.7109375 C-42.72002474 12.91625143 -42.24032468 10.24438315 -42 7 C-40.28847537 5.28847537 -37.93952251 5.44261031 -35.6015625 5.09765625 C-34.48136719 4.92943359 -33.36117187 4.76121094 -32.20703125 4.58789062 C-31.02496094 4.41451172 -29.84289062 4.24113281 -28.625 4.0625 C-21.16078699 2.95591149 -13.72376227 1.81744174 -6.31787109 0.36499023 C-4 0 -4 0 0 0 Z " fill="#FEFCFD" transform="translate(69,346)"/>
<path d="M0 0 C2.64 0 5.28 0 8 0 C8 17.49 8 34.98 8 53 C5.36 53 2.72 53 0 53 C0 35.51 0 18.02 0 0 Z " fill="#FCBED6" transform="translate(326,320)"/>
<path d="M0 0 C0.66 0.33 1.32 0.66 2 1 C2 1.66 2 2.32 2 3 C2.639375 3.28875 3.27875 3.5775 3.9375 3.875 C6 5 6 5 7 7 C7.57591852 12.03517333 8.09027582 17.33355627 5.125 21.6875 C1.29424491 24.52225876 -1.02250675 24.75534132 -5.69140625 24.45703125 C-8 24 -8 24 -10.5 22.3125 C-13.58328235 17.55910638 -14.78846843 13.71639609 -14 8 C-10.14781073 2.04446813 -7.17856867 -0.29910703 0 0 Z " fill="#FEFCFD" transform="translate(628,343)"/>
<path d="M0 0 C2.98179281 0.06482158 4.72326893 0.22270682 7.2421875 1.84765625 C10.09035044 4.83890872 11.61194934 7.46156825 11.8125 11.625 C11.2505208 15.55885442 10.28288375 18.17436042 8.25 21.5625 C7.59 21.5625 6.93 21.5625 6.25 21.5625 C6.25 22.2225 6.25 22.8825 6.25 23.5625 C2.54038624 23.85031486 -1.04876497 23.99982172 -4.75 23.5625 C-8.70995656 20.07396684 -9.66350915 16.90310824 -10 11.6875 C-9.92731955 5.09780622 -6.75403127 0.3172348 0 0 Z " fill="#FEFDFD" transform="translate(665.75,343.4375)"/>
<path d="M0 0 C3.5578125 -0.12375 3.5578125 -0.12375 7.1875 -0.25 C7.92508545 -0.28641602 8.6626709 -0.32283203 9.42260742 -0.36035156 C13.02641563 -0.42069892 14.87966133 -0.07776224 17.92578125 1.890625 C20.65242581 4.66348387 20.96859242 5.4346636 21.1875 9.375 C21.01703404 12.67067523 20.73844294 14.2836829 19 17 C18.34 17 17.68 17 17 17 C17 17.66 17 18.32 17 19 C11.39 19 5.78 19 0 19 C0 12.73 0 6.46 0 0 Z " fill="#FEFCFD" transform="translate(378,347)"/>
<path d="M0 0 C1.32 0 2.64 0 4 0 C5.39300182 1.95890881 6.72245446 3.9639118 8 6 C9.31558703 7.02323436 10.64377755 8.03126968 12 9 C12 9.66 12 10.32 12 11 C7.60893096 11.72116797 3.21645527 12.43285468 -1.17749023 13.13623047 C-2.66845919 13.37621575 -4.15903222 13.61867568 -5.64916992 13.86376953 C-22.05235721 16.55822537 -22.05235721 16.55822537 -29 16 C-31.71560686 13.28439314 -31.98484868 11.74241449 -32.0625 7.9375 C-30.60125342 3.89758299 -28.81250602 2.87028597 -25 1 C-21.875 0.375 -21.875 0.375 -19 1 C-16.875 3.875 -16.875 3.875 -15 7 C-10.78880211 9.74721922 -6.87806085 9.14347238 -2 9 C-1.34 6.03 -0.68 3.06 0 0 Z " fill="#FEFCFD" transform="translate(54,334)"/>
<path d="M0 0 C5.94371215 -0.49530935 10.03629953 0.62904737 15 4 C16.38232443 5.62626404 17.71937515 7.2925002 19 9 C20.546875 9.99 20.546875 9.99 22.125 11 C25.3993985 13.27784243 26.14550772 14.15478472 27 18 C27.52182227 21.14813653 27.7496128 23.87755269 27 27 C25.0281035 29.38788563 22.92503875 30.96553508 20 32 C17.96875 31.68359375 17.96875 31.68359375 16 31 C14.9275 30.649375 13.855 30.29875 12.75 29.9375 C11.38875 29.4734375 11.38875 29.4734375 10 29 C10 28.34 10 27.68 10 27 C11.98 26.01 13.96 25.02 16 24 C16.08076963 21.54101345 16.14037143 19.08466258 16.1875 16.625 C16.21263672 15.92632812 16.23777344 15.22765625 16.26367188 14.5078125 C16.32978561 12.23252323 16.32978561 12.23252323 16 9 C15.01 8.34 14.02 7.68 13 7 C13 6.34 13 5.68 13 5 C8.6822542 5.50797009 4.96697886 6.19682779 1 8 C1 8.66 1 9.32 1 10 C-0.31200404 11.35432675 -1.64631404 12.68733482 -3 14 C-3.33 14.66 -3.66 15.32 -4 16 C-6.97 15.505 -6.97 15.505 -10 15 C-9.2575 14.319375 -8.515 13.63875 -7.75 12.9375 C-4.04139731 9.23943311 -1.65893134 4.97679401 0 0 Z " fill="#FEFAFB" transform="translate(92,318)"/>
<path d="M0 0 C0 2.64 0 5.28 0 8 C-26.35620334 13.88126555 -26.35620334 13.88126555 -35 11 C-35.33 8.69 -35.66 6.38 -36 4 C-34.72382812 3.86722656 -33.44765625 3.73445313 -32.1328125 3.59765625 C-30.46352004 3.41947335 -28.79425036 3.24107686 -27.125 3.0625 C-25.86236328 2.93198242 -25.86236328 2.93198242 -24.57421875 2.79882812 C-23.36572266 2.66831055 -23.36572266 2.66831055 -22.1328125 2.53515625 C-21.38918457 2.456604 -20.64555664 2.37805176 -19.87939453 2.29711914 C-17.91553684 2.08362653 -17.91553684 2.08362653 -16 1 C-13.85841099 0.76901636 -11.7112164 0.58841319 -9.5625 0.4375 C-8.40878906 0.35371094 -7.25507812 0.26992188 -6.06640625 0.18359375 C-4.04696134 0.06268431 -2.02306125 0 0 0 Z " fill="#FEFDFD" transform="translate(63,369)"/>
<path d="M0 0 C4.600771 1.11308976 8.63326024 2.86953164 12.875 4.9375 C13.21222141 9.15276759 13.09387045 11.51539269 11.125 15.3125 C8.875 17.9375 8.875 17.9375 6.625 18.8125 C6.0475 18.85375 5.47 18.895 4.875 18.9375 C4.875 17.9475 4.875 16.9575 4.875 15.9375 C4.215 15.9375 3.555 15.9375 2.875 15.9375 C2.875 17.5875 2.875 19.2375 2.875 20.9375 C1.225 20.9375 -0.425 20.9375 -2.125 20.9375 C-5.61784082 15.04333112 -7.48861943 9.85387604 -6.125 2.9375 C-4.0513053 0.14014058 -3.60832389 -0.07216648 0 0 Z " fill="#FEF3F7" transform="translate(82.125,335.0625)"/>
<path d="M0 0 C1.17755859 -0.02126953 1.17755859 -0.02126953 2.37890625 -0.04296875 C4.4375 0.1875 4.4375 0.1875 6.4375 2.1875 C7.02811551 6.16073163 7.23950649 9.96705534 5 13.375 C4.484375 13.973125 3.96875 14.57125 3.4375 15.1875 C2.71704633 18.33868325 2.71704633 18.33868325 2.4375 21.1875 C-0.60946724 21.46933118 -2.13469686 21.46884801 -4.73046875 19.76171875 C-5.39691406 19.13910156 -6.06335938 18.51648438 -6.75 17.875 C-7.76126953 16.95267578 -7.76126953 16.95267578 -8.79296875 16.01171875 C-11.48641507 13.23503126 -12.51489443 11.56834454 -13 7.6875 C-12.5625 4.1875 -12.5625 4.1875 -10.25 2.3125 C-6.67001868 0.81390317 -3.86108953 0.03180469 0 0 Z " fill="#FEF4F8" transform="translate(71.5625,322.8125)"/>
<path d="M0 0 C0.99 0 1.98 0 3 0 C3.6708712 1.6232687 4.33657029 3.24867578 5 4.875 C5.556875 6.23238281 5.556875 6.23238281 6.125 7.6171875 C7 10 7 10 7 12 C11.29 12 15.58 12 20 12 C20 13.32 20 14.64 20 16 C14.51470259 19.47159188 9.88506464 19.36163875 3.625 19.1875 C2.69816406 19.17396484 1.77132812 19.16042969 0.81640625 19.14648438 C-1.45633998 19.11133881 -3.72785847 19.06214132 -6 19 C-6.29466691 13.30310639 -6.00704792 10.01174654 -3 5 C-2.443125 4.05125 -1.88625 3.1025 -1.3125 2.125 C-0.6628125 1.073125 -0.6628125 1.073125 0 0 Z " fill="#FEFCFD" transform="translate(71,346)"/>
<path d="M0 0 C0.125 3.375 0.125 3.375 0 7 C-2 9 -2 9 -4.625 9.125 C-5.40875 9.08375 -6.1925 9.0425 -7 9 C-7.226875 9.598125 -7.45375 10.19625 -7.6875 10.8125 C-10.4983113 15.4971855 -16.15181637 16.99385505 -21 19 C-21.99 19.515625 -22.98 20.03125 -24 20.5625 C-33.08550625 24.45044187 -44.26821145 24.36418336 -54 24 C-54 22.68 -54 21.36 -54 20 C-52.25589844 19.88785156 -52.25589844 19.88785156 -50.4765625 19.7734375 C-39.83588146 18.94725942 -30.47960061 16.92632551 -20.46484375 13.2421875 C-17 12 -17 12 -15 12 C-15 11.34 -15 10.68 -15 10 C-13.7625 9.4740625 -13.7625 9.4740625 -12.5 8.9375 C-8.67649848 7.0576878 -5.75232777 4.29214155 -2.63671875 1.42578125 C-1 0 -1 0 0 0 Z " fill="#FEFBFC" transform="translate(119,359)"/>
<path d="M0 0 C2.43816585 -0.0809723 4.87364384 -0.14046972 7.3125 -0.1875 C8.34793945 -0.22520508 8.34793945 -0.22520508 9.40429688 -0.26367188 C14.48936074 -0.33736845 14.48936074 -0.33736845 16.95703125 1.29296875 C18.72557834 4.18755707 18.35187635 6.71582076 18 10 C16.95703125 11.70703125 16.95703125 11.70703125 15 13 C12.35003674 13.2172101 9.94923442 13.28351554 7.3125 13.1875 C6.2596582 13.16719727 6.2596582 13.16719727 5.18554688 13.14648438 C3.45670171 13.11120182 1.72825235 13.05739583 0 13 C0 8.71 0 4.42 0 0 Z " fill="#FEFDFE" transform="translate(378,327)"/>
<path d="M0 0 C1.670625 0.061875 1.670625 0.061875 3.375 0.125 C4.80816898 2.99133795 4.50700361 5.49735501 4.5 8.6875 C4.50386719 10.45287109 4.50386719 10.45287109 4.5078125 12.25390625 C4.375 15.125 4.375 15.125 3.375 16.125 C1.85571962 16.19679964 0.33332518 16.20892007 -1.1875 16.1875 C-2.01378906 16.17847656 -2.84007813 16.16945313 -3.69140625 16.16015625 C-4.64853516 16.14275391 -4.64853516 16.14275391 -5.625 16.125 C-5.625 15.465 -5.625 14.805 -5.625 14.125 C-4.965 14.125 -4.305 14.125 -3.625 14.125 C-3.625 13.465 -3.625 12.805 -3.625 12.125 C-4.553125 12.00125 -5.48125 11.8775 -6.4375 11.75 C-9.625 11.125 -9.625 11.125 -12.625 9.125 C-11.875 6.6875 -11.875 6.6875 -10.625 4.125 C-8.5 3.3125 -8.5 3.3125 -6.625 3.125 C-6.625 3.785 -6.625 4.445 -6.625 5.125 C-5.635 5.125 -4.645 5.125 -3.625 5.125 C-3.625 4.465 -3.625 3.805 -3.625 3.125 C-4.285 2.795 -4.945 2.465 -5.625 2.125 C-3.625 0.125 -3.625 0.125 0 0 Z " fill="#FEF6F9" transform="translate(102.625,325.875)"/>
<path d="M0 0 C2.82321865 2.82321865 3.77294537 6.25978203 5.125 9.9375 C5.40214844 10.66646484 5.67929687 11.39542969 5.96484375 12.14648438 C7.10821193 15.21893433 8 17.69539373 8 21 C3.05 21 -1.9 21 -7 21 C-5.875 14.25 -5.875 14.25 -4.58984375 11.1328125 C-4.32236328 10.47539062 -4.05488281 9.81796875 -3.77929688 9.140625 C-3.50150391 8.47546875 -3.22371094 7.8103125 -2.9375 7.125 C-2.65583984 6.43664062 -2.37417969 5.74828125 -2.08398438 5.0390625 C-1.39484734 3.35710091 -0.69819202 1.67822303 0 0 Z " fill="#FEF8FA" transform="translate(295,332)"/>
<path d="M0 0 C4.56476556 0.30947563 7.43267639 0.99517639 10.6875 4.25 C10.6875 9.43483783 8.48872895 12.17922669 5.2578125 15.9296875 C3.6875 17.25 3.6875 17.25 0.6875 17.25 C0.378125 16.156875 0.06875 15.06375 -0.25 13.9375 C-0.89587897 11.69592006 -1.5748117 9.4630649 -2.3125 7.25 C-3.3025 7.25 -4.2925 7.25 -5.3125 7.25 C-5.4375 4.875 -5.4375 4.875 -5.3125 2.25 C-3.3125 0.25 -3.3125 0.25 0 0 Z " fill="#FEF6F9" transform="translate(79.3125,312.75)"/>
<path d="M0 0 C3.44628803 0.99760969 4.57832003 2.64696467 6.375 5.6875 C6.125 8 6.125 8 5.375 9.6875 C5.045 9.3575 4.715 9.0275 4.375 8.6875 C4.25125 9.244375 4.1275 9.80125 4 10.375 C3.31523145 12.90864364 2.38366237 15.26671032 1.375 17.6875 C0.055 17.6875 -1.265 17.6875 -2.625 17.6875 C-2.955 16.6975 -3.285 15.7075 -3.625 14.6875 C-4.285 14.3575 -4.945 14.0275 -5.625 13.6875 C-5.625 12.3675 -5.625 11.0475 -5.625 9.6875 C-6.285 9.6875 -6.945 9.6875 -7.625 9.6875 C-7.625 10.3475 -7.625 11.0075 -7.625 11.6875 C-8.285 11.6875 -8.945 11.6875 -9.625 11.6875 C-9.35712317 7.13359381 -7.46775158 4.84581844 -4.2421875 1.8671875 C-2.625 0.6875 -2.625 0.6875 0 0 Z " fill="#FEF8FA" transform="translate(54.625,313.3125)"/>
<path d="M0 0 C0.495 0.495 0.99 0.99 1.5 1.5 C7.75741386 5.25444832 17.61060412 2.41474036 24.5 1.5 C26.16289063 1.28537109 26.16289063 1.28537109 27.859375 1.06640625 C30.57353546 0.71543722 33.28700665 0.35986083 36 0 C36.5625 1.9375 36.5625 1.9375 37 4 C36 5 36 5 32.83984375 5.09765625 C30.90818359 5.08025391 30.90818359 5.08025391 28.9375 5.0625 C27.64714844 5.05347656 26.35679688 5.04445313 25.02734375 5.03515625 C24.02832031 5.02355469 23.02929688 5.01195312 22 5 C22 5.66 22 6.32 22 7 C18.3545658 7.19588601 14.7086421 7.38030536 11.0625 7.5625 C10.02158203 7.61857422 8.98066406 7.67464844 7.90820312 7.73242188 C6.91884766 7.78076172 5.92949219 7.82910156 4.91015625 7.87890625 C3.53549194 7.94960327 3.53549194 7.94960327 2.13305664 8.02172852 C0 8 0 8 -1 7 C-1.125 4 -1.125 4 -1 1 C-0.67 0.67 -0.34 0.34 0 0 Z " fill="#FEFBFC" transform="translate(26,362)"/>
<path d="M0 0 C2.40920141 4.21610247 3.44250802 7.13241177 3 12 C2.67 12.66 2.34 13.32 2 14 C-0.64 14 -3.28 14 -6 14 C-6 12.68 -6 11.36 -6 10 C-6.33 10.66 -6.66 11.32 -7 12 C-8.32 11.34 -9.64 10.68 -11 10 C-11.375 7.8125 -11.375 7.8125 -11 5 C-7.52220203 1.36044399 -5.15214209 -0.75766795 0 0 Z " fill="#FEF2F7" transform="translate(49,328)"/>
<path d="M0 0 C1.77503906 0.03480469 1.77503906 0.03480469 3.5859375 0.0703125 C5.36871094 0.09738281 5.36871094 0.09738281 7.1875 0.125 C8.10273438 0.14820313 9.01796875 0.17140625 9.9609375 0.1953125 C10.2734375 3.5078125 10.2734375 3.5078125 9.9609375 7.1953125 C6.95545416 10.20079584 4.21725062 10.35714175 0.1484375 10.3828125 C-1.24797522 10.33497454 -2.64424171 10.27736078 -4.0390625 10.1953125 C-5.42031268 7.43281214 -5.22985556 5.24800151 -5.0390625 2.1953125 C-3.0390625 0.1953125 -3.0390625 0.1953125 0 0 Z " fill="#FEFCFD" transform="translate(428.0390625,356.8046875)"/>
<path d="M0 0 C3.30733031 0.58849294 5.0271491 1.87275782 7.1953125 4.390625 C7.1953125 5.710625 7.1953125 7.030625 7.1953125 8.390625 C0.9253125 8.390625 -5.3446875 8.390625 -11.8046875 8.390625 C-10.04097194 1.33576274 -6.97000581 -0.32204647 0 0 Z " fill="#FEFBFC" transform="translate(510.8046875,343.609375)"/>
<path d="M0 0 C2.54319673 0.49194824 4.84858556 1.17869519 7.3125 2 C7.125 3.8125 7.125 3.8125 6.3125 6 C4 7.625 4 7.625 1.3125 9 C0.3225 9.61875 0.3225 9.61875 -0.6875 10.25 C-3.41207924 11.27171721 -4.95127192 10.91207603 -7.6875 10 C-8.71868909 9.03219369 -9.72444759 8.03563027 -10.6875 7 C-7.79627346 2.45340453 -5.73659826 -0.66552039 0 0 Z " fill="#FEFCFD" transform="translate(100.6875,348)"/>
<path d="M0 0 C2.3125 1 2.3125 1 4 2 C3.42655063 4.86724686 3.1385485 5.8614515 1 8 C-1.19291082 8.45662153 -3.40585889 8.820412 -5.625 9.125 C-7.40777344 9.37636719 -7.40777344 9.37636719 -9.2265625 9.6328125 C-10.14179688 9.75398438 -11.05703125 9.87515625 -12 10 C-11.45103359 6.11148791 -11.13098984 5.13396688 -8.25 2.1875 C-4.93876434 -0.04121631 -3.83922513 -0.70722568 0 0 Z " fill="#FEFBFC" transform="translate(38,323)"/>
<path d="M0 0 C0.495 0.99 0.495 0.99 1 2 C1.66 2.33 2.32 2.66 3 3 C-1.40901054 3.86403125 -5.81979863 4.7181391 -10.23242188 5.56347656 C-11.73033189 5.85183392 -13.22774214 6.14280103 -14.72460938 6.43652344 C-16.88802962 6.8605538 -19.05312998 7.27487019 -21.21875 7.6875 C-21.87742065 7.81874268 -22.53609131 7.94998535 -23.21472168 8.08520508 C-35.82281774 10.45145484 -35.82281774 10.45145484 -41 7 C-40.21351074 6.88406494 -39.42702148 6.76812988 -38.61669922 6.64868164 C-35.03604741 6.12053154 -31.45552278 5.59152407 -27.875 5.0625 C-26.01875 4.78889648 -26.01875 4.78889648 -24.125 4.50976562 C-22.92617188 4.33251953 -21.72734375 4.15527344 -20.4921875 3.97265625 C-19.39245605 3.81031494 -18.29272461 3.64797363 -17.15966797 3.48071289 C-15.0168595 3.15470533 -12.87698631 2.808906 -10.74023438 2.4453125 C-7.10126937 1.85394827 -3.68168659 1.93652265 0 2 C0 1.34 0 0.68 0 0 Z " fill="#FCD6E5" transform="translate(66,343)"/>
<path d="M0 0 C-0.33 0.99 -0.66 1.98 -1 3 C-1.33 2.67 -1.66 2.34 -2 2 C-3.62175778 2.12512806 -5.23774812 2.32631987 -6.84765625 2.55859375 C-8.34522461 2.76645508 -8.34522461 2.76645508 -9.87304688 2.97851562 C-11.97200926 3.28057084 -14.0709677 3.58265343 -16.16992188 3.88476562 C-21.84655561 4.67288432 -27.26879813 5.17200486 -33 5 C-32.67 4.01 -32.34 3.02 -32 2 C-31.22914062 1.93941406 -30.45828125 1.87882812 -29.6640625 1.81640625 C-28.66117188 1.73261719 -27.65828125 1.64882813 -26.625 1.5625 C-25.62726562 1.48128906 -24.62953125 1.40007812 -23.6015625 1.31640625 C-21.02072387 1.15034374 -21.02072387 1.15034374 -19 0 C-3.97674419 -1.98837209 -3.97674419 -1.98837209 0 0 Z " fill="#FCD1E1" transform="translate(63,361)"/>
<path d="M0 0 C3.63 0 7.26 0 11 0 C11 1.98 11 3.96 11 6 C7.62902617 7.49821059 5.79557881 8 2 8 C0.74335022 5.09399739 0 3.20395416 0 0 Z " fill="#FEF7FA" transform="translate(61,314)"/>
<path d="M0 0 C-0.66 1.98 -1.32 3.96 -2 6 C-2.33 5.34 -2.66 4.68 -3 4 C-6.3 4.66 -9.6 5.32 -13 6 C-13 4.68 -13 3.36 -13 2 C-4.57142857 -0.28571429 -4.57142857 -0.28571429 0 0 Z " fill="#FDDCE8" transform="translate(38,331)"/>
<path d="M0 0 C-0.33 0.99 -0.66 1.98 -1 3 C-4.0625 4.1875 -4.0625 4.1875 -7 5 C-6.67 5.99 -6.34 6.98 -6 8 C-6.99 8 -7.98 8 -9 8 C-9.12375 7.360625 -9.2475 6.72125 -9.375 6.0625 C-9.684375 5.0415625 -9.684375 5.0415625 -10 4 C-10.66 3.67 -11.32 3.34 -12 3 C-7.89542386 0.01485372 -5.02254631 -0.2954439 0 0 Z " fill="#FDDBE8" transform="translate(105,323)"/>
<path d="M0 0 C3.12950516 -0.21337535 5.34913291 -0.32543354 8.1875 1.09375 C10 3 10 3 10.390625 6.13671875 C10.32101563 7.89435547 10.32101563 7.89435547 10.25 9.6875 C10.21390625 10.86699219 10.1778125 12.04648437 10.140625 13.26171875 C10.07101563 14.61716797 10.07101563 14.61716797 10 16 C9.67 16 9.34 16 9 16 C8.34 11.38 7.68 6.76 7 2 C4.69 1.67 2.38 1.34 0 1 C0 0.67 0 0.34 0 0 Z " fill="#FCC0D7" transform="translate(99,324)"/>
<path d="M0 0 C0.33 0 0.66 0 1 0 C1.33 3.63 1.66 7.26 2 11 C-2.98777148 13.49388574 -4.66983248 12.88836125 -10 12 C-10 11.67 -10 11.34 -10 11 C-5.545 10.505 -5.545 10.505 -1 10 C-0.67 6.7 -0.34 3.4 0 0 Z " fill="#FDD8E6" transform="translate(107,331)"/>
<path d="M0 0 C0.33 1.98 0.66 3.96 1 6 C0.34 6 -0.32 6 -1 6 C-1.66 7.32 -2.32 8.64 -3 10 C-3.6875 6.6875 -3.6875 6.6875 -4 3 C-1.87096774 0 -1.87096774 0 0 0 Z " fill="#FEFDFE" transform="translate(80,337)"/>
<path d="M0 0 C0.66 0.33 1.32 0.66 2 1 C2 3.97 2 6.94 2 10 C1.67 10 1.34 10 1 10 C1 7.69 1 5.38 1 3 C-0.98 3.99 -2.96 4.98 -5 6 C-5.66 5.34 -6.32 4.68 -7 4 C-1.7265625 0.77734375 -1.7265625 0.77734375 0 0 Z " fill="#FCD0E1" transform="translate(117,346)"/>
<path d="M0 0 C0.99 0.33 1.98 0.66 3 1 C2.2884375 1.6496875 2.2884375 1.6496875 1.5625 2.3125 C-0.23686957 4.02309613 -0.23686957 4.02309613 -1 7 C-2.32 6.67 -3.64 6.34 -5 6 C-3.63016497 2.83884224 -3.0109362 2.0072908 0 0 Z " fill="#FEEEF4" transform="translate(44,316)"/>
<path d="M0 0 C0.66 0 1.32 0 2 0 C2.12375 0.969375 2.2475 1.93875 2.375 2.9375 C2.58125 3.948125 2.7875 4.95875 3 6 C3.66 6.33 4.32 6.66 5 7 C2.03 6.67 -0.94 6.34 -4 6 C-2.68 5.67 -1.36 5.34 0 5 C0 3.35 0 1.7 0 0 Z " fill="#FDDBE8" transform="translate(85,351)"/>
<path d="M0 0 C1.9375 1.5 1.9375 1.5 3 3 C-5.57142857 3.28571429 -5.57142857 3.28571429 -9 1 C-5.95016004 -0.52491998 -3.3576631 -0.23562548 0 0 Z " fill="#FDDEEA" transform="translate(51,361)"/>
<path d="M0 0 C-0.99 1.485 -0.99 1.485 -2 3 C-5.625 3.1875 -5.625 3.1875 -9 3 C-9 2.34 -9 1.68 -9 1 C-5.92677456 0.08941469 -3.19902639 -0.08886184 0 0 Z " fill="#FCD2E2" transform="translate(38,331)"/>
<path d="M0 0 C3.63 0 7.26 0 11 0 C11 0.99 11 1.98 11 3 C7.37 2.34 3.74 1.68 0 1 C0 0.67 0 0.34 0 0 Z " fill="#FCD4E3" transform="translate(96,347)"/>
<path d="M0 0 C2.475 0.99 2.475 0.99 5 2 C4.01 2.33 3.02 2.66 2 3 C2 5.97 2 8.94 2 12 C1.67 12 1.34 12 1 12 C0.67 8.04 0.34 4.08 0 0 Z " fill="#FCBCD4" transform="translate(51,330)"/>
<path d="M0 0 C0.66 1.32 1.32 2.64 2 4 C1.34 4 0.68 4 0 4 C-0.33 3.01 -0.66 2.02 -1 1 C-0.67 0.67 -0.34 0.34 0 0 Z M-3 2 C-2.34 2.33 -1.68 2.66 -1 3 C-1 4.32 -1 5.64 -1 7 C-1.99 6.67 -2.98 6.34 -4 6 C-3.67 4.68 -3.34 3.36 -3 2 Z " fill="#FDE9F1" transform="translate(42,330)"/>
<path d="M0 0 C0.33 0.66 0.66 1.32 1 2 C-1.8125 2.625 -1.8125 2.625 -5 3 C-5.99 2.34 -6.98 1.68 -8 1 C-2.25 -1.125 -2.25 -1.125 0 0 Z " fill="#FDD5E4" transform="translate(102,358)"/>
</svg>
