<?xml version="1.0" encoding="UTF-8"?>
<svg version="1.1" xmlns="http://www.w3.org/2000/svg" width="300" height="300">
<path d="M0 0 C1.65 0.33 3.3 0.66 5 1 C5 6.61 5 12.22 5 18 C5.66 18 6.32 18 7 18 C11.64374834 25.25585678 11.39924471 31.54932035 11 40 C11 40.66 11 41.32 11 42 C12.485 41.505 12.485 41.505 14 41 C13.83846436 40.43466553 13.67692871 39.86933105 13.51049805 39.28686523 C12.61083428 35.25666415 12.81545286 31.17583088 12.8125 27.0625 C12.80025391 26.16853516 12.78800781 25.27457031 12.77539062 24.35351562 C12.75655542 15.89650901 12.75655542 15.89650901 15 12 C17.32686453 10.83656773 18.84721413 10.80104012 21.4375 10.75 C22.21996094 10.72421875 23.00242188 10.6984375 23.80859375 10.671875 C26.56869453 11.08515212 27.27524258 11.84580324 29 14 C29.24392954 16.95619367 29.32779815 19.678395 29.25 22.625 C29.24484375 23.41390625 29.2396875 24.2028125 29.234375 25.015625 C29.15423563 30.84576437 29.15423563 30.84576437 28 32 C25.32941149 32.14115161 22.67567762 32.04247107 20 32 C20.33 35.3 20.66 38.6 21 42 C22.65 42.33 24.3 42.66 26 43 C29.70208773 39.0897499 30.48836338 36.73789496 30.390625 31.38671875 C30.37773437 30.13955078 30.36484375 28.89238281 30.3515625 27.60742188 C30.31804687 26.31384766 30.28453125 25.02027344 30.25 23.6875 C30.23195312 22.37458984 30.21390625 21.06167969 30.1953125 19.70898438 C30.14822786 16.47191512 30.08247042 13.23632947 30 10 C30.66 9.67 31.32 9.34 32 9 C32.53109375 9.47050781 33.0621875 9.94101563 33.609375 10.42578125 C34.31578125 11.04839844 35.0221875 11.67101562 35.75 12.3125 C36.44609375 12.92738281 37.1421875 13.54226562 37.859375 14.17578125 C39.96978683 16.02916165 39.96978683 16.02916165 42.265625 17.60546875 C42.83796875 18.06566406 43.4103125 18.52585938 44 19 C44 19.66 44 20.32 44 21 C44.66 21 45.32 21 46 21 C47.18695553 24.56086658 47.35095418 27.97331024 47.5625 31.6875 C47.60568359 32.38939453 47.64886719 33.09128906 47.69335938 33.81445312 C47.7991736 35.54275206 47.90006581 37.2713511 48 39 C48.66 38.67 49.32 38.34 50 38 C49.94779297 36.81857422 49.94779297 36.81857422 49.89453125 35.61328125 C49.69347083 27.52299286 49.97514265 19.6072905 53 12 C56.43304388 9.31327 59.72475782 8.62871208 64 8 C66.60334924 10.71182212 66.99456691 11.89133813 67.1875 15.75 C67.0946875 17.35875 67.0946875 17.35875 67 19 C67.99 19 68.98 19 70 19 C70.28875 18.05125 70.5775 17.1025 70.875 16.125 C72 13 72 13 74 11 C76.05859375 10.6640625 76.05859375 10.6640625 78.4375 10.625 C79.21996094 10.59664062 80.00242187 10.56828125 80.80859375 10.5390625 C83 11 83 11 84.76953125 12.546875 C86.44972815 15.89660088 86.36205953 18.96905793 86.25 22.625 C86.24484375 23.305625 86.2396875 23.98625 86.234375 24.6875 C86.15529337 29.68941327 86.15529337 29.68941327 85 32 C82.36 32 79.72 32 77 32 C77.14107747 33.45880109 77.28802415 34.91703551 77.4375 36.375 C77.51871094 37.18710938 77.59992188 37.99921875 77.68359375 38.8359375 C77.89090114 41.04272805 77.89090114 41.04272805 79 43 C82.03458017 42.67193728 83.56976162 42.46210789 85.6875 40.1875 C88.21920065 35.96799892 89.2609727 33.14155843 89.4140625 28.140625 C89.45273438 27.02558594 89.49140625 25.91054687 89.53125 24.76171875 C89.5621875 23.60285156 89.593125 22.44398438 89.625 21.25 C89.66367188 20.07566406 89.70234375 18.90132812 89.7421875 17.69140625 C89.8363982 14.79442732 89.92201602 11.89745374 90 9 C91.65 9.99 93.3 10.98 95 12 C95.556875 11.2265625 95.556875 11.2265625 96.125 10.4375 C98 9 98 9 101 8.875 C104 10 104 10 105.64453125 12.85546875 C107.62157431 17.89286613 107.56571974 23.08960689 107.6875 28.4375 C107.72166016 29.45521484 107.75582031 30.47292969 107.79101562 31.52148438 C107.87293627 34.01421266 107.94226649 36.50661402 108 39 C108.66 38.67 109.32 38.34 110 38 C111.05836661 34.82490018 111.20243789 32.35717617 111.31640625 29.01953125 C111.35830078 27.85615234 111.40019531 26.69277344 111.44335938 25.49414062 C111.48267578 24.27919922 111.52199219 23.06425781 111.5625 21.8125 C111.62727539 19.97268555 111.62727539 19.97268555 111.69335938 18.09570312 C111.7995309 15.06391619 111.90157952 12.03204685 112 9 C115.38106159 10.4490264 117.70676313 12.10347903 120 15 C120.45410156 17.74902344 120.45410156 17.74902344 120.390625 20.859375 C120.37773437 21.97441406 120.36484375 23.08945313 120.3515625 24.23828125 C120.30128906 25.97658203 120.30128906 25.97658203 120.25 27.75 C120.23195312 28.92433594 120.21390625 30.09867188 120.1953125 31.30859375 C120.1481912 34.2065534 120.08241305 37.10286418 120 40 C122.64107354 37.53258609 123.79641403 35.42559084 125 32 C125.99 32.33 126.98 32.66 128 33 C127.59572994 38.86191589 126.80916142 42.2945653 123 47 C120 49 120 49 117.5 48.875 C114.51808573 47.83133 113.6252455 46.65171634 112 44 C111.443125 44.639375 110.88625 45.27875 110.3125 45.9375 C107.74519151 48.22726163 106.4221787 48.91225183 103 49 C100.46155991 47.18682851 100.00510975 46.01532925 99 43 C98.85013589 41.0093556 98.75171962 39.01464609 98.68359375 37.01953125 C98.64548584 35.97128174 98.60737793 34.92303223 98.56811523 33.84301758 C98.50346069 31.84791138 98.50346069 31.84791138 98.4375 29.8125 C98.2209375 23.4703125 98.2209375 23.4703125 98 17 C97.67 27.56 97.34 38.12 97 49 C94.69 49 92.38 49 90 49 C90 47.35 90 45.7 90 44 C89.34 44 88.68 44 88 44 C87.71125 44.639375 87.4225 45.27875 87.125 45.9375 C86 48 86 48 84 49 C76.69565217 49.23188406 76.69565217 49.23188406 73 48 C69.80811477 43.13256457 69.47957382 38.75777439 69.3125 33.125 C69.27833984 32.34125 69.24417969 31.5575 69.20898438 30.75 C69.12719588 28.83381252 69.0619054 26.91693285 69 25 C68.34 25 67.68 25 67 25 C67.00523682 25.59538574 67.01047363 26.19077148 67.01586914 26.80419922 C67.03661999 29.49445547 67.04965407 32.18469489 67.0625 34.875 C67.07087891 35.81214844 67.07925781 36.74929687 67.08789062 37.71484375 C67.09111328 38.61074219 67.09433594 39.50664062 67.09765625 40.4296875 C67.10289307 41.25710449 67.10812988 42.08452148 67.11352539 42.93701172 C67 45 67 45 66 47 C65.34 47 64.68 47 64 47 C64 47.66 64 48.32 64 49 C55.80743982 49.4726477 55.80743982 49.4726477 52.4375 47.5 C51.963125 47.005 51.48875 46.51 51 46 C50.443125 46.515625 49.88625 47.03125 49.3125 47.5625 C47 49 47 49 44.25 48.6875 C43.5075 48.460625 42.765 48.23375 42 48 C38.24941403 39.40490715 38.71500311 31.19378855 39 22 C38.90203125 22.75023437 38.8040625 23.50046875 38.703125 24.2734375 C36.29043089 40.7879127 36.29043089 40.7879127 30.375 46.5625 C26.30300041 49.02713133 23.82460604 49.33273145 19 49 C16.5625 47.5 16.5625 47.5 15 46 C14.319375 46.495 13.63875 46.99 12.9375 47.5 C9.40534991 49.30365111 6.91363009 49.23021353 3 49 C3 48.34 3 47.68 3 47 C2.01 46.67 1.02 46.34 0 46 C-1.6875 43.9375 -1.6875 43.9375 -3 42 C-3.33 42.66 -3.66 43.32 -4 44 C-4.66 44 -5.32 44 -6 44 C-6 44.99 -6 45.98 -6 47 C-6.99 47 -7.98 47 -9 47 C-9.671875 45.33984375 -9.671875 45.33984375 -10 43 C-8.890625 40.44140625 -8.890625 40.44140625 -7.25 37.5625 C-2.93535385 29.34556316 -0.16303091 21.24690524 -2 12 C-2.10699148 10.43991496 -2.17385524 8.87618997 -2.1875 7.3125 C-2.20167969 6.56613281 -2.21585937 5.81976563 -2.23046875 5.05078125 C-2 3 -2 3 0 0 Z M1 5 C1.33 5.66 1.66 6.32 2 7 C2.33 6.34 2.66 5.68 3 5 C2.34 5 1.68 5 1 5 Z M62 12 C62.33 13.32 62.66 14.64 63 16 C63 14.68 63 13.36 63 12 C62.67 12 62.34 12 62 12 Z M21 16 C19.74050951 17.03406673 19.74050951 17.03406673 19.90234375 19.28515625 C19.91394531 20.20167969 19.92554687 21.11820313 19.9375 22.0625 C19.94652344 22.98160156 19.95554687 23.90070313 19.96484375 24.84765625 C19.97644531 25.55792969 19.98804687 26.26820313 20 27 C20.99 27 21.98 27 23 27 C23 23.7 23 20.4 23 17 C22.34 16.67 21.68 16.34 21 16 Z M78 16 C76.74050951 17.03406673 76.74050951 17.03406673 76.90234375 19.28515625 C76.91394531 20.20167969 76.92554688 21.11820313 76.9375 22.0625 C76.94652344 22.98160156 76.95554687 23.90070313 76.96484375 24.84765625 C76.97644531 25.55792969 76.98804688 26.26820313 77 27 C77.66 27 78.32 27 79 27 C79 23.37 79 19.74 79 16 C78.67 16 78.34 16 78 16 Z M58 18 C58 26.58 58 35.16 58 44 C58.66 44 59.32 44 60 44 C61.2263757 41.54724859 61.11415314 39.9494219 61.09765625 37.2109375 C61.09443359 36.26992187 61.09121094 35.32890625 61.08789062 34.359375 C61.07951172 33.37453125 61.07113281 32.3896875 61.0625 31.375 C61.05798828 30.38242188 61.05347656 29.38984375 61.04882812 28.3671875 C61.03702145 25.9113984 61.020554 23.45572896 61 21 C60.34 21 59.68 21 59 21 C58.67 20.01 58.34 19.02 58 18 Z M2 25 C0.22334198 30.12095546 -0.27665755 33.57420541 1 39 C1.66 39.66 2.32 40.32 3 41 C5.53044493 36.38565925 5.21579803 31.99065483 4 27 C3.34 26.34 2.68 25.68 2 25 Z " fill="#D6AD6A" transform="translate(105,122)"/>
<path d="M0 0 C2.76276177 0.52268466 5.3260876 1.10869587 8 2 C9.1875 4.5625 9.1875 4.5625 10 7 C11.32 6.67 12.64 6.34 14 6 C14.495 7.98 14.495 7.98 15 10 C16.32 10.33 17.64 10.66 19 11 C18.34 12.65 17.68 14.3 17 16 C18.65 15.67 20.3 15.34 22 15 C22.6875 16.8125 22.6875 16.8125 23 19 C21.5625 20.75 21.5625 20.75 20 22 C20.99 22.66 21.98 23.32 23 24 C22.63287028 26.71675995 22.27255401 28.61063713 20.6875 30.875 C19 32 19 32 16.8125 31.6875 C16.214375 31.460625 15.61625 31.23375 15 31 C14.67 32.65 14.34 34.3 14 36 C11.125 36.125 11.125 36.125 8 36 C7.34 35.34 6.68 34.68 6 34 C5.54625 34.825 5.0925 35.65 4.625 36.5 C4.08875 37.325 3.5525 38.15 3 39 C2.34 39 1.68 39 1 39 C1.99 41.97 2.98 44.94 4 48 C4.4125 46.906875 4.825 45.81375 5.25 44.6875 C6.49590095 41.38586247 7.93965822 39.79325291 11 38 C13.5859375 37.55859375 13.5859375 37.55859375 16.375 37.4375 C20.56092322 37.16852501 24.07621714 36.59072278 28 35 C27.69795087 38.32254039 27.43790565 40.45031047 25.33203125 43.09375 C22.55994529 45.35970971 20.41694983 45.97391454 16.9375 46.75 C15.89464844 46.99234375 14.85179687 47.2346875 13.77734375 47.484375 C11 48 11 48 8 48 C8.34227572 50.97065509 8.34227572 50.97065509 9 54 C9.99 54.495 9.99 54.495 11 55 C11 55.66 11 56.32 11 57 C11.42410156 56.566875 11.84820312 56.13375 12.28515625 55.6875 C15.53725302 52.59979493 17.25896392 51.10933319 21.8125 50.4375 C23.3903125 50.7159375 23.3903125 50.7159375 25 51 C27 54 27 54 27 60 C71.22 60.33 115.44 60.66 161 61 C161 61.99 161 62.98 161 64 C141.67644785 64.04672846 122.35290717 64.08199301 103.02931023 64.10362434 C94.05695583 64.11393527 85.08463655 64.12799212 76.11230469 64.15087891 C68.29168331 64.17081837 60.47108737 64.18371777 52.65044129 64.18817699 C48.50978645 64.19078342 44.36920436 64.1969059 40.22857285 64.21146011 C36.3298419 64.2250528 32.43121356 64.22921923 28.53246117 64.22621536 C27.10302485 64.22676477 25.67358503 64.23073219 24.24416924 64.23841095 C22.28885264 64.24839802 20.33348077 64.24476898 18.37814331 64.24050903 C16.73827359 64.24327441 16.73827359 64.24327441 15.06527519 64.24609566 C11.7180977 63.97736747 9.07384932 63.35291733 6 62 C5.67 61.01 5.34 60.02 5 59 C5.99 59 6.98 59 8 59 C8 58.34 8 57.68 8 57 C7.360625 56.690625 6.72125 56.38125 6.0625 56.0625 C4 55 4 55 3 54 C2.608125 54.763125 2.21625 55.52625 1.8125 56.3125 C-0.23658662 59.35080086 -1.6625017 60.52529145 -5 62 C-8.3125 62.1875 -8.3125 62.1875 -11 62 C-11.495 60.515 -11.495 60.515 -12 59 C-10.8553125 58.4121875 -10.8553125 58.4121875 -9.6875 57.8125 C-6.69474254 55.79412869 -5.62891988 54.18027215 -4 51 C-3.5875 50.401875 -3.175 49.80375 -2.75 49.1875 C-1.54769783 45.68078534 -2.39574208 42.62554755 -3 39 C-3.99 39 -4.98 39 -6 39 C-8.67927341 34.98108988 -8.15601248 32.75838077 -8 28 C-8.33 30.64 -8.66 33.28 -9 36 C-12.76624671 37.25541557 -14.37188934 36.37061958 -18 35 C-18 34.34 -18 33.68 -18 33 C-19.65 32.67 -21.3 32.34 -23 32 C-23 31.34 -23 30.68 -23 30 C-23.99 30 -24.98 30 -26 30 C-25.67 28.35 -25.34 26.7 -25 25 C-24.01 24.67 -23.02 24.34 -22 24 C-22 23.34 -22 22.68 -22 22 C-23.32 21.67 -24.64 21.34 -26 21 C-25.67 19.35 -25.34 17.7 -25 16 C-24.01 16 -23.02 16 -22 16 C-22.33 14.68 -22.66 13.36 -23 12 C-22.01 11.67 -21.02 11.34 -20 11 C-19.690625 10.34 -19.38125 9.68 -19.0625 9 C-18.711875 8.34 -18.36125 7.68 -18 7 C-16.67696283 6.6278958 -15.34262065 6.29369827 -14 6 C-13.34 5.01 -12.68 4.02 -12 3 C-11.01 3 -10.02 3 -9 3 C-9 2.34 -9 1.68 -9 1 C-5.80097361 0.91113816 -3.07322544 1.08941469 0 2 C0 1.34 0 0.68 0 0 Z M-7 19 C-7.66 19.66 -8.32 20.32 -9 21 C-8.01 21 -7.02 21 -6 21 C-6.33 20.34 -6.66 19.68 -7 19 Z M-2 25 C-1 28 -1 28 -1 28 Z M4 25 C5 27 5 27 5 27 Z M20 57 C19.01 58.485 19.01 58.485 18 60 C19.98 60 21.96 60 24 60 C23.67 59.01 23.34 58.02 23 57 C22.01 57 21.02 57 20 57 Z " fill="#E9CAC2" transform="translate(70,118)"/>
<path d="M0 0 C-0.30204913 3.32254039 -0.56209435 5.45031047 -2.66796875 8.09375 C-5.44005471 10.35970971 -7.58305017 10.97391454 -11.0625 11.75 C-12.10535156 11.99234375 -13.14820313 12.2346875 -14.22265625 12.484375 C-17 13 -17 13 -20 13 C-19.65772428 15.97065509 -19.65772428 15.97065509 -19 19 C-18.34 19.33 -17.68 19.66 -17 20 C-17 20.66 -17 21.32 -17 22 C-16.57589844 21.566875 -16.15179688 21.13375 -15.71484375 20.6875 C-12.46274698 17.59979493 -10.74103608 16.10933319 -6.1875 15.4375 C-5.135625 15.623125 -4.08375 15.80875 -3 16 C-1 19 -1 19 -1 25 C43.22 25.33 87.44 25.66 133 26 C133 26.99 133 27.98 133 29 C113.67644785 29.04672846 94.35290717 29.08199301 75.02931023 29.10362434 C66.05695583 29.11393527 57.08463655 29.12799212 48.11230469 29.15087891 C40.29168331 29.17081837 32.47108737 29.18371777 24.65044129 29.18817699 C20.50978645 29.19078342 16.36920436 29.1969059 12.22857285 29.21146011 C8.3298419 29.2250528 4.43121356 29.22921923 0.53246117 29.22621536 C-0.89697515 29.22676477 -2.32641497 29.23073219 -3.75583076 29.23841095 C-5.71114736 29.24839802 -7.66651923 29.24476898 -9.62185669 29.24050903 C-11.26172641 29.24327441 -11.26172641 29.24327441 -12.93472481 29.24609566 C-16.2819023 28.97736747 -18.92615068 28.35291733 -22 27 C-22.33 26.01 -22.66 25.02 -23 24 C-22.01 24 -21.02 24 -20 24 C-20 23.34 -20 22.68 -20 22 C-20.639375 21.690625 -21.27875 21.38125 -21.9375 21.0625 C-24 20 -24 20 -25 19 C-25.391875 19.763125 -25.78375 20.52625 -26.1875 21.3125 C-28.23658662 24.35080086 -29.6625017 25.52529145 -33 27 C-36.3125 27.1875 -36.3125 27.1875 -39 27 C-39.33 26.01 -39.66 25.02 -40 24 C-39.236875 23.608125 -38.47375 23.21625 -37.6875 22.8125 C-34.83802376 21.184938 -34.83802376 21.184938 -33.5 18.3125 C-33.005 17.549375 -32.51 16.78625 -32 16 C-29.3125 15.6875 -29.3125 15.6875 -27 16 C-27 14.68 -27 13.36 -27 12 C-26.01 12.33 -25.02 12.66 -24 13 C-23.5875 11.906875 -23.175 10.81375 -22.75 9.6875 C-21.50383706 6.38516821 -20.06432053 4.78930605 -17 3 C-14.34375 2.55859375 -14.34375 2.55859375 -11.5 2.4375 C-7.33233326 2.24858104 -3.85965366 0 0 0 Z M-8 22 C-8.99 23.485 -8.99 23.485 -10 25 C-8.02 25 -6.04 25 -4 25 C-4.33 24.01 -4.66 23.02 -5 22 C-5.99 22 -6.98 22 -8 22 Z " fill="#DAB47A" transform="translate(98,153)"/>
<path d="M0 0 C1.65 0.33 3.3 0.66 5 1 C5 6.61 5 12.22 5 18 C5.66 18 6.32 18 7 18 C11.64374834 25.25585678 11.39924471 31.54932035 11 40 C11 40.66 11 41.32 11 42 C12.485 41.505 12.485 41.505 14 41 C14 41.66 14 42.32 14 43 C14.66 43 15.32 43 16 43 C16.66 43.99 17.32 44.98 18 46 C20.42521494 46.58189266 20.42521494 46.58189266 23.125 46.6875 C24.49011719 46.78611328 24.49011719 46.78611328 25.8828125 46.88671875 C26.58148438 46.92410156 27.28015625 46.96148437 28 47 C26 49 26 49 22.625 49.3125 C18.9140389 48.99258956 17.62756052 48.5224581 15 46 C14.319375 46.495 13.63875 46.99 12.9375 47.5 C9.40534991 49.30365111 6.91363009 49.23021353 3 49 C3 48.34 3 47.68 3 47 C2.01 46.67 1.02 46.34 0 46 C-1.6875 43.9375 -1.6875 43.9375 -3 42 C-3.33 42.66 -3.66 43.32 -4 44 C-4.66 44 -5.32 44 -6 44 C-6 44.99 -6 45.98 -6 47 C-6.99 47 -7.98 47 -9 47 C-9.671875 45.33984375 -9.671875 45.33984375 -10 43 C-8.890625 40.44140625 -8.890625 40.44140625 -7.25 37.5625 C-2.93535385 29.34556316 -0.16303091 21.24690524 -2 12 C-2.10699148 10.43991496 -2.17385524 8.87618997 -2.1875 7.3125 C-2.20167969 6.56613281 -2.21585937 5.81976563 -2.23046875 5.05078125 C-2 3 -2 3 0 0 Z M1 5 C1.33 5.66 1.66 6.32 2 7 C2.33 6.34 2.66 5.68 3 5 C2.34 5 1.68 5 1 5 Z M2 25 C0.22334198 30.12095546 -0.27665755 33.57420541 1 39 C1.66 39.66 2.32 40.32 3 41 C5.53044493 36.38565925 5.21579803 31.99065483 4 27 C3.34 26.34 2.68 25.68 2 25 Z " fill="#D7AF6D" transform="translate(105,122)"/>
<path d="M0 0 C1.15823776 -0.00137466 2.31647552 -0.00274933 3.5098114 -0.00416565 C4.77648148 -0.00057037 6.04315155 0.0030249 7.34820557 0.00672913 C8.69853208 0.00701127 10.04885875 0.00685274 11.39918518 0.00628662 C15.06206809 0.0059997 18.72491825 0.01187949 22.38779354 0.01886058 C26.21681998 0.02511156 30.04584717 0.0256993 33.87487793 0.02688599 C41.12440046 0.02999415 48.37390792 0.03820061 55.62342381 0.04823548 C63.87728732 0.05941258 72.13115154 0.06491109 80.38502073 0.06993091 C97.36266659 0.08038364 114.34029776 0.09797314 131.31793213 0.12025452 C131.31793213 1.11025452 131.31793213 2.10025452 131.31793213 3.12025452 C84.78793213 3.12025452 38.25793213 3.12025452 -9.68206787 3.12025452 C-9.68206787 2.46025452 -9.68206787 1.80025452 -9.68206787 1.12025452 C-6.39428629 0.13587315 -3.42493199 -0.00313638 0 0 Z " fill="#D5AD67" transform="translate(99.68206787109375,178.87974548339844)"/>
<path d="M0 0 C0.99 0 1.98 0 3 0 C3.33 1.32 3.66 2.64 4 4 C5.32 4.33 6.64 4.66 8 5 C7.34 6.65 6.68 8.3 6 10 C7.65 9.67 9.3 9.34 11 9 C11.6875 10.8125 11.6875 10.8125 12 13 C10.5625 14.75 10.5625 14.75 9 16 C9.99 16.66 10.98 17.32 12 18 C11.63287028 20.71675995 11.27255401 22.61063713 9.6875 24.875 C8 26 8 26 5.8125 25.6875 C5.214375 25.460625 4.61625 25.23375 4 25 C4 25.99 4 26.98 4 28 C3.01 28 2.02 28 1 28 C0.67 26.68 0.34 25.36 0 24 C-0.33 25.32 -0.66 26.64 -1 28 C-1.66 28 -2.32 28 -3 28 C-3.67528223 26.42032193 -4.33989694 24.83608097 -5 23.25 C-5.556875 21.92742187 -5.556875 21.92742187 -6.125 20.578125 C-7 18 -7 18 -7 14 C-7.61488281 14.04640625 -8.22976562 14.0928125 -8.86328125 14.140625 C-11.29745175 14.24932799 -13.57936402 14.29184973 -16 14 C-18.0625 12 -18.0625 12 -19 10 C-17.33333333 10 -15.66666667 10 -14 10 C-14 10.66 -14 11.32 -14 12 C-13.01 12 -12.02 12 -11 12 C-9.14697958 10.30723357 -9.14697958 10.30723357 -8 8 C-8.21717352 5.79199472 -8.21717352 5.79199472 -9 4 C-8.01 4.33 -7.02 4.66 -6 5 C-5.67 6.65 -5.34 8.3 -5 10 C-2.35534962 6.8745041 -1.15585285 3.91211733 0 0 Z " fill="#C67166" transform="translate(81,124)"/>
<path d="M0 0 C2.76276177 0.52268466 5.3260876 1.10869587 8 2 C9.01461206 5.32818605 9.84567759 8.51444206 10 12 C7.625 15.125 7.625 15.125 5 17 C4.87625 16.030625 4.7525 15.06125 4.625 14.0625 C4.315625 12.5465625 4.315625 12.5465625 4 11 C3.34 10.67 2.68 10.34 2 10 C2.66 11.65 3.32 13.3 4 15 C3.01 15.495 3.01 15.495 2 16 C1.34 16.99 0.68 17.98 0 19 C-4.75 18.25 -4.75 18.25 -7 16 C-6.67 16.99 -6.34 17.98 -6 19 C-6.99 19.33 -7.98 19.66 -9 20 C-15.032287 12.48520179 -15.032287 12.48520179 -14.953125 8.84375 C-14.375 6.9375 -14.375 6.9375 -13 4 C-11.68 3.67 -10.36 3.34 -9 3 C-9 2.34 -9 1.68 -9 1 C-5.80097361 0.91113816 -3.07322544 1.08941469 0 2 C0 1.34 0 0.68 0 0 Z " fill="#EBCCC7" transform="translate(70,118)"/>
<path d="M0 0 C3.37705625 0.53725895 6.696686 1.11064623 10 2 C10.103125 2.7425 10.20625 3.485 10.3125 4.25 C10.81930867 7.04180127 10.81930867 7.04180127 12.5625 9.0625 C14 11 14 11 14 15 C14.66 14.67 15.32 14.34 16 14 C16 12.02 16 10.04 16 8 C18 10 18 10 18.125 12.625 C18.08375 13.40875 18.0425 14.1925 18 15 C18.66 15 19.32 15 20 15 C20 15.66 20 16.32 20 17 C17.125 17.125 17.125 17.125 14 17 C13.34 16.34 12.68 15.68 12 15 C11.54625 15.825 11.0925 16.65 10.625 17.5 C10.08875 18.325 9.5525 19.15 9 20 C8.34 20 7.68 20 7 20 C7.185625 21.2375 7.37125 22.475 7.5625 23.75 C7.94711223 26.76279577 8.0874594 29.10010827 7 32 C5.68 31.67 4.36 31.34 3 31 C3.185625 30.484375 3.37125 29.96875 3.5625 29.4375 C4.15419517 26.14091261 3.567267 23.27754265 3 20 C2.01 20 1.02 20 0 20 C-2.97387455 15.53918818 -2.38766968 11.23354074 -2 6 C-1 2.3125 -1 2.3125 0 0 Z M4 6 C5 9 5 9 5 9 Z " fill="#E1B6A7" transform="translate(64,137)"/>
<path d="M0 0 C0.99 0.33 1.98 0.66 3 1 C3 1.66 3 2.32 3 3 C3.99 3 4.98 3 6 3 C6 3.99 6 4.98 6 6 C5.01 6.33 4.02 6.66 3 7 C3.66 7.33 4.32 7.66 5 8 C5.1079859 10.43868168 5.18726589 12.87259133 5.25 15.3125 C5.30027344 16.34793945 5.30027344 16.34793945 5.3515625 17.40429688 C5.390625 19.42578125 5.390625 19.42578125 5 23 C2.984375 24.98046875 2.984375 24.98046875 1 26 C1 25.01 1 24.02 1 23 C0.34 23 -0.32 23 -1 23 C-1.66 22.01 -2.32 21.02 -3 20 C-3.33 20.99 -3.66 21.98 -4 23 C-4.5775 22.814375 -5.155 22.62875 -5.75 22.4375 C-8.20692525 21.95976454 -9.64397534 22.24270636 -12 23 C-11.34 21.35 -10.68 19.7 -10 18 C-10.66 18 -11.32 18 -12 18 C-11.44271087 14.65626525 -10.64826111 11.96687001 -9 9 C-10.05270463 7.84188612 -10.05270463 7.84188612 -12 7 C-12 6.34 -12 5.68 -12 5 C-11.01 4.34 -10.02 3.68 -9 3 C-8.34 2.34 -7.68 1.68 -7 1 C-6.34 1.33 -5.68 1.66 -5 2 C-5 2.66 -5 3.32 -5 4 C-3.68 4 -2.36 4 -1 4 C-0.67 2.68 -0.34 1.36 0 0 Z M-4 6 C-4 6.99 -4 7.98 -4 9 C-3.01 8.67 -2.02 8.34 -1 8 C-1 7.34 -1 6.68 -1 6 C-1.99 6 -2.98 6 -4 6 Z M-4 11 C-3.67 11.66 -3.34 12.32 -3 13 C-2.67 12.34 -2.34 11.68 -2 11 C-2.66 11 -3.32 11 -4 11 Z M1 11 C1 11.99 1 12.98 1 14 C0.01 14.495 0.01 14.495 -1 15 C-0.01 15 0.98 15 2 15 C1.67 13.68 1.34 12.36 1 11 Z M-1 17 C-0.01 17.495 -0.01 17.495 1 18 C1.33 18.99 1.66 19.98 2 21 C2 19.68 2 18.36 2 17 C1.01 17 0.02 17 -1 17 Z " fill="#D08A7E" transform="translate(246,128)"/>
<path d="M0 0 C1.32 0.33 2.64 0.66 4 1 C4 1.66 4 2.32 4 3 C4.99 3.33 5.98 3.66 7 4 C7 4.66 7 5.32 7 6 C5.824375 6.1546875 5.824375 6.1546875 4.625 6.3125 C1.66954819 6.77595022 1.66954819 6.77595022 0 10 C0.33 10.66 0.66 11.32 1 12 C2.65 12 4.3 12 6 12 C6.33 12.99 6.66 13.98 7 15 C4.69 15.33 2.38 15.66 0 16 C0.33 16.99 0.66 17.98 1 19 C2.65 19.33 4.3 19.66 6 20 C6.33 18.68 6.66 17.36 7 16 C7.66 16 8.32 16 9 16 C9 18.31 9 20.62 9 23 C7.37581255 23.08090971 5.75048255 23.13914995 4.125 23.1875 C3.22007812 23.22230469 2.31515625 23.25710937 1.3828125 23.29296875 C0.20332031 23.14794922 0.20332031 23.14794922 -1 23 C-3.42130331 19.36804504 -3.21022785 17.61650652 -3.125 13.3125 C-3.10695312 12.13300781 -3.08890625 10.95351562 -3.0703125 9.73828125 C-3.04710937 8.83464844 -3.02390625 7.93101562 -3 7 C-3.2165625 7.8971875 -3.2165625 7.8971875 -3.4375 8.8125 C-3.8872439 10.56150404 -4.42892341 12.28677023 -5 14 C-5.04288277 15.35348751 -5.04048034 16.70893851 -5 18.0625 C-5 22 -5 22 -6 24 C-6.99 23.67 -7.98 23.34 -9 23 C-8.67 21.02 -8.34 19.04 -8 17 C-9.65 17.33 -11.3 17.66 -13 18 C-11.50163895 14.88801935 -9.80066242 11.9465385 -8 9 C-8.99 8.67 -9.98 8.34 -11 8 C-11 7.01 -11 6.02 -11 5 C-10.01 5 -9.02 5 -8 5 C-8 4.01 -8 3.02 -8 2 C-7.01 2 -6.02 2 -5 2 C-5 2.66 -5 3.32 -5 4 C-3.01508358 3.73323796 -3.01508358 3.73323796 -1 3 C-0.67 2.01 -0.34 1.02 0 0 Z " fill="#D89F94" transform="translate(247,158)"/>
<path d="M0 0 C-0.29159779 3.20757567 -0.58456469 5.42877645 -2.5 8.0625 C-5.99697568 10.77265616 -9.47047128 11.38415837 -13.75 12.25 C-14.54277344 12.42273438 -15.33554688 12.59546875 -16.15234375 12.7734375 C-18.09873515 13.19554648 -20.04903064 13.59958271 -22 14 C-22.2265625 7.296875 -22.2265625 7.296875 -20.1875 4.625 C-16.25761639 2.62152993 -12.98754269 2.43089613 -8.62109375 2.2734375 C-5.41921703 1.93941161 -3.12615433 0 0 0 Z " fill="#D4A861" transform="translate(98,153)"/>
<path d="M0 0 C2.76276177 0.52268466 5.3260876 1.10869587 8 2 C9.01461206 5.32818605 9.84567759 8.51444206 10 12 C7.625 15.125 7.625 15.125 5 17 C4.87625 16.030625 4.7525 15.06125 4.625 14.0625 C4.41875 13.051875 4.2125 12.04125 4 11 C3.34 10.67 2.68 10.34 2 10 C2.66 11.65 3.32 13.3 4 15 C3.01 15.495 3.01 15.495 2 16 C1.34 16.99 0.68 17.98 0 19 C-1.65 18.67 -3.3 18.34 -5 18 C-5.33 17.01 -5.66 16.02 -6 15 C-4.02 14.34 -2.04 13.68 0 13 C-0.99 12.34 -1.98 11.68 -3 11 C-3 10.01 -3 9.02 -3 8 C-3.66 7.67 -4.32 7.34 -5 7 C-4.01 6.34 -3.02 5.68 -2 5 C-1.01 5.66 -0.02 6.32 1 7 C1.33 5.35 1.66 3.7 2 2 C1.34 2 0.68 2 0 2 C0 1.34 0 0.68 0 0 Z " fill="#DEADA5" transform="translate(70,118)"/>
<path d="M0 0 C0.33 0.66 0.66 1.32 1 2 C0.566875 3.051875 0.566875 3.051875 0.125 4.125 C-1.30624915 7.78263671 -1.60300314 11.09619753 -2 15 C-5.76624671 16.25541557 -7.37188934 15.37061958 -11 14 C-11 13.34 -11 12.68 -11 12 C-11.99 11.67 -12.98 11.34 -14 11 C-14.36554789 7.71006898 -14.26218503 6.36900115 -12.3125 3.625 C-10 2 -10 2 -7.3125 2.1875 C-5 3 -5 3 -4 4 C-2.68 2.68 -1.36 1.36 0 0 Z " fill="#D28F85" transform="translate(63,139)"/>
<path d="M0 0 C3.71162994 1.85581497 5.01775064 2.55714584 7 6 C6.67 6.99 6.34 7.98 6 9 C6.00549329 10.41726863 6.0507692 11.834666 6.125 13.25 C6.17856791 17.93336575 5.2965422 20.91725831 3 25 C2.01 25.33 1.02 25.66 0 26 C0 17.42 0 8.84 0 0 Z " fill="#D3A65D" transform="translate(137,134)"/>
<path d="M0 0 C0.66 0 1.32 0 2 0 C3.85776765 3.13498292 4.20140476 5.37471432 4 9 C3.34 7.68 2.68 6.36 2 5 C-0.61895048 9.77573323 0.16880569 13.84434881 1 19 C0.34 19 -0.32 19 -1 19 C-1.33 19.99 -1.66 20.98 -2 22 C-2.66 21.34 -3.32 20.68 -4 20 C-4.33 20.66 -4.66 21.32 -5 22 C-5.66 22 -6.32 22 -7 22 C-7 22.99 -7 23.98 -7 25 C-7.99 25 -8.98 25 -10 25 C-11.17635584 22.15090696 -11.05626279 21.13614443 -9.85546875 18.23046875 C-9.30503906 17.22628906 -8.75460938 16.22210938 -8.1875 15.1875 C-5.86858783 10.79178946 -4.09900732 6.83563219 -3 2 C-2.67 3.32 -2.34 4.64 -2 6 C-1.34 4.02 -0.68 2.04 0 0 Z " fill="#DFBE8C" transform="translate(106,144)"/>
<path d="M0 0 C7.05927607 0.15346252 11.00672254 0.8753205 16 6 C15.67 7.32 15.34 8.64 15 10 C14.01 10 13.02 10 12 10 C12 10.99 12 11.98 12 13 C11.01 13 10.02 13 9 13 C8.67 11.68 8.34 10.36 8 9 C7.67 10.32 7.34 11.64 7 13 C6.34 13 5.68 13 5 13 C4.35309078 11.3962669 3.70751236 9.79199694 3.0625 8.1875 C2.70285156 7.29417969 2.34320313 6.40085938 1.97265625 5.48046875 C1.26386514 3.6729091 0.6139753 1.84192591 0 0 Z " fill="#CA7B72" transform="translate(73,139)"/>
<path d="M0 0 C4.875 4.625 4.875 4.625 6 8 C4.68 7.67 3.36 7.34 2 7 C1.608125 7.763125 1.21625 8.52625 0.8125 9.3125 C-1.23658662 12.35080086 -2.6625017 13.52529145 -6 15 C-9.3125 15.1875 -9.3125 15.1875 -12 15 C-12.33 14.01 -12.66 13.02 -13 12 C-12.236875 11.608125 -11.47375 11.21625 -10.6875 10.8125 C-7.83802376 9.184938 -7.83802376 9.184938 -6.5 6.3125 C-6.005 5.549375 -5.51 4.78625 -5 4 C-2.3125 3.6875 -2.3125 3.6875 0 4 C0 2.68 0 1.36 0 0 Z " fill="#D8B071" transform="translate(71,165)"/>
<path d="M0 0 C1.98 0.495 1.98 0.495 4 1 C3.34 1 2.68 1 2 1 C2.66 2.32 3.32 3.64 4 5 C4.66 3.35 5.32 1.7 6 0 C8 2 8 2 8.1953125 4.3828125 C8.17210938 5.28773438 8.14890625 6.19265625 8.125 7.125 C8.10695313 8.03507813 8.08890625 8.94515625 8.0703125 9.8828125 C8.04710938 10.58148438 8.02390625 11.28015625 8 12 C4.625 12.625 4.625 12.625 1 13 C-1 11 -1 11 -1.23046875 8.90625 C-1.21628906 8.1121875 -1.20210937 7.318125 -1.1875 6.5 C-1.18105469 5.7059375 -1.17460938 4.911875 -1.16796875 4.09375 C-1 2 -1 2 0 0 Z " fill="#BF5E54" transform="translate(65,140)"/>
<path d="M0 0 C-0.33 1.98 -0.66 3.96 -1 6 C-3.475 5.01 -3.475 5.01 -6 4 C-6 4.66 -6 5.32 -6 6 C-6 6.99 -6 7.98 -6 9 C-4.68 9.66 -3.36 10.32 -2 11 C-2 11.33 -2 11.66 -2 12 C-4.01822917 11.96744792 -6.03645833 11.93489583 -8.0546875 11.90234375 C-10.08185404 11.87350758 -10.08185404 11.87350758 -12 13 C-11.835 12.236875 -11.67 11.47375 -11.5 10.6875 C-10.90854604 7.96403764 -10.90854604 7.96403764 -11 5 C-11 3.33333333 -11 1.66666667 -11 0 C-9.54263913 -0.19491452 -8.08405407 -0.38069358 -6.625 -0.5625 C-5.81289062 -0.66691406 -5.00078125 -0.77132812 -4.1640625 -0.87890625 C-2 -1 -2 -1 0 0 Z " fill="#C66F64" transform="translate(73,120)"/>
<path d="M0 0 C0.99 0 1.98 0 3 0 C2.93107574 3.44621303 2.79182907 6.05814016 0.515625 8.765625 C-3.81772744 12.58045663 -6.80184462 13.80717935 -12.5625 14.3125 C-16 14 -16 14 -17.9375 12 C-18.288125 11.34 -18.63875 10.68 -19 10 C-17.33333333 10 -15.66666667 10 -14 10 C-14 10.66 -14 11.32 -14 12 C-13.01 12 -12.02 12 -11 12 C-9.14697958 10.30723357 -9.14697958 10.30723357 -8 8 C-8.21717352 5.79199472 -8.21717352 5.79199472 -9 4 C-8.01 4.33 -7.02 4.66 -6 5 C-5.67 6.65 -5.34 8.3 -5 10 C-2.35534962 6.8745041 -1.15585285 3.91211733 0 0 Z " fill="#C3695E" transform="translate(81,124)"/>
<path d="M0 0 C2.3125 0.1875 2.3125 0.1875 4 1 C3.67 1.99 3.34 2.98 3 4 C2.67 3.34 2.34 2.68 2 2 C0.02 3.65 -1.96 5.3 -4 7 C-3.34 7.66 -2.68 8.32 -2 9 C-2.99 9.495 -2.99 9.495 -4 10 C-3.2575 10.061875 -2.515 10.12375 -1.75 10.1875 C1.83127761 11.24560475 2.84857871 13.03252236 5 16 C5.66 16.33 6.32 16.66 7 17 C6.67 16.01 6.34 15.02 6 14 C6.66 14 7.32 14 8 14 C7.50168276 17.68754757 6.89932357 19.60490662 4 22 C3.34 21.67 2.68 21.34 2 21 C2.33 19.68 2.66 18.36 3 17 C-1.26311718 12.87010523 -4.28758534 12.38728235 -10 12 C-10.33 11.01 -10.66 10.02 -11 9 C-9.6696875 8.1646875 -9.6696875 8.1646875 -8.3125 7.3125 C-5.90087555 5.73501389 -4.40030769 4.35747252 -2.375 2.1875 C-1.59125 1.465625 -0.8075 0.74375 0 0 Z " fill="#E4BDB5" transform="translate(85,128)"/>
<path d="M0 0 C4.94515667 2.62711448 8.87775489 6.26645294 13 10 C12.67 10.66 12.34 11.32 12 12 C11.01 11.34 10.02 10.68 9 10 C8.67 10.99 8.34 11.98 8 13 C7.34 12.67 6.68 12.34 6 12 C6.33 10.68 6.66 9.36 7 8 C5.02 6.35 3.04 4.7 1 3 C1.02094727 3.79172607 1.04189453 4.58345215 1.06347656 5.39916992 C1.14675467 8.99515018 1.19869891 12.59092736 1.25 16.1875 C1.28351563 17.43337891 1.31703125 18.67925781 1.3515625 19.96289062 C1.37089844 21.7659668 1.37089844 21.7659668 1.390625 23.60546875 C1.41157227 24.71043701 1.43251953 25.81540527 1.45410156 26.95385742 C0.90231402 30.65528387 -0.46916923 32.30935033 -3 35 C-3.66 34.67 -4.32 34.34 -5 34 C-4.34733154 33.31067383 -3.69466309 32.62134766 -3.0222168 31.91113281 C-0.58374373 28.40076786 -0.54329449 26.64933096 -0.64453125 22.421875 C-0.66193359 21.17921875 -0.67933594 19.9365625 -0.69726562 18.65625 C-0.73529297 17.3671875 -0.77332031 16.078125 -0.8125 14.75 C-0.86451234 12.18236649 -0.91289751 9.61465601 -0.95703125 7.046875 C-0.98772705 5.91088867 -1.01842285 4.77490234 -1.05004883 3.60449219 C-1 1 -1 1 0 0 Z " fill="#D7AE6D" transform="translate(136,131)"/>
<path d="M0 0 C0.66 0.66 1.32 1.32 2 2 C1.625 4.125 1.625 4.125 1 6 C0.34 5.34 -0.32 4.68 -1 4 C-4.29714793 4.32971479 -5.6226839 4.6226839 -8 7 C-8.16681109 10.08347826 -8.16681109 10.08347826 -8 13 C-8.99 12.67 -9.98 12.34 -11 12 C-11 11.34 -11 10.68 -11 10 C-11.99 10 -12.98 10 -14 10 C-13.67 8.35 -13.34 6.7 -13 5 C-12.01 4.67 -11.02 4.34 -10 4 C-10 3.34 -10 2.68 -10 2 C-9.04287109 1.90912109 -9.04287109 1.90912109 -8.06640625 1.81640625 C-6.82697266 1.69072266 -6.82697266 1.69072266 -5.5625 1.5625 C-4.73878906 1.48128906 -3.91507813 1.40007812 -3.06640625 1.31640625 C-1.01337975 1.21069185 -1.01337975 1.21069185 0 0 Z " fill="#E2B7B0" transform="translate(58,138)"/>
<path d="M0 0 C2.375 0.25 2.375 0.25 3.375 1.25 C3.5625 4.1875 3.5625 4.1875 3.375 7.25 C2.715 7.91 2.055 8.57 1.375 9.25 C-1.125 9.1875 -1.125 9.1875 -3.625 8.25 C-4.9375 5.6875 -4.9375 5.6875 -5.625 3.25 C-3.7774876 0.91630013 -3.0311278 0.28867884 0 0 Z " fill="#DBB67D" transform="translate(221.625,121.75)"/>
<path d="M0 0 C1.98 0.99 1.98 0.99 4 2 C3.34 2 2.68 2 2 2 C2.33 3.32 2.66 4.64 3 6 C4.65 6.33 6.3 6.66 8 7 C8.33 5.68 8.66 4.36 9 3 C9.66 3 10.32 3 11 3 C11 5.31 11 7.62 11 10 C9.35425434 10.02688151 7.70838587 10.04634123 6.0625 10.0625 C5.14597656 10.07410156 4.22945312 10.08570313 3.28515625 10.09765625 C1 10 1 10 0 9 C-0.07179964 7.48071962 -0.08392007 5.95832518 -0.0625 4.4375 C-0.05347656 3.61121094 -0.04445312 2.78492188 -0.03515625 1.93359375 C-0.02355469 1.29550781 -0.01195312 0.65742188 0 0 Z " fill="#D29085" transform="translate(245,171)"/>
<path d="M0 0 C2.86544183 3.23919511 3.34536289 5.79161859 4 10 C4.66 10.33 5.32 10.66 6 11 C6 11.66 6 12.32 6 13 C6.99 12.67 7.98 12.34 9 12 C9 14 9 14 7.5 15.625 C7.005 16.07875 6.51 16.5325 6 17 C4 16 4 16 3 13 C2.01 12.67 1.02 12.34 0 12 C0.66 11.67 1.32 11.34 2 11 C0.35 9.02 -1.3 7.04 -3 5 C-2.67 4.34 -2.34 3.68 -2 3 C-1.67 3.33 -1.34 3.66 -1 4 C-0.67 2.68 -0.34 1.36 0 0 Z " fill="#E3C69B" transform="translate(75,162)"/>
<path d="M0 0 C2.98704569 0.49784095 4.39324263 1.26216175 7 3 C8.9896995 3.39013716 10.99019869 3.73202649 13 4 C12.67 4.66 12.34 5.32 12 6 C8.04 6 4.08 6 0 6 C-0.33 4.35 -0.66 2.7 -1 1 C-0.67 0.67 -0.34 0.34 0 0 Z " fill="#CB7E72" transform="translate(45,134)"/>
<path d="M0 0 C2.475 0.99 2.475 0.99 5 2 C4.34 4.97 3.68 7.94 3 11 C2.01 11 1.02 11 0 11 C-0.33 10.34 -0.66 9.68 -1 9 C-1.66 9 -2.32 9 -3 9 C-2.44271087 5.65626525 -1.64826111 2.96687001 0 0 Z " fill="#E2B8AC" transform="translate(237,137)"/>
<path d="M0 0 C1.98 0.495 1.98 0.495 4 1 C3.34 1 2.68 1 2 1 C2.33 4.96 2.66 8.92 3 13 C1.68 12.34 0.36 11.68 -1 11 C-1.0270043 9.54176788 -1.04639787 8.08339325 -1.0625 6.625 C-1.07410156 5.81289062 -1.08570313 5.00078125 -1.09765625 4.1640625 C-1 2 -1 2 0 0 Z " fill="#B74B3F" transform="translate(65,140)"/>
<path d="M0 0 C0.99 0.33 1.98 0.66 3 1 C3 1.66 3 2.32 3 3 C3.99 3 4.98 3 6 3 C6 3.99 6 4.98 6 6 C5.360625 6.12375 4.72125 6.2475 4.0625 6.375 C3.0415625 6.684375 3.0415625 6.684375 2 7 C1.67 7.66 1.34 8.32 1 9 C0.01 8.67 -0.98 8.34 -2 8 C-1.125 1.125 -1.125 1.125 0 0 Z " fill="#D28F84" transform="translate(246,128)"/>
<path d="M0 0 C0.33 0.66 0.66 1.32 1 2 C0.26821134 4.07196631 -0.55899003 6.1108552 -1.4375 8.125 C-1.91058594 9.22070312 -2.38367187 10.31640625 -2.87109375 11.4453125 C-3.24363281 12.28835937 -3.61617187 13.13140625 -4 14 C-4.66 14 -5.32 14 -6 14 C-6.4560284 8.29964499 -5.60412752 5.45215753 -2 1 C-1.34 0.67 -0.68 0.34 0 0 Z " fill="#BC574C" transform="translate(63,139)"/>
<path d="M0 0 C0.33 0.66 0.66 1.32 1 2 C1.99 2 2.98 2 4 2 C4 2.99 4 3.98 4 5 C5.32 5.66 6.64 6.32 8 7 C8 7.33 8 7.66 8 8 C5.98177083 7.96744792 3.96354167 7.93489583 1.9453125 7.90234375 C-0.08185404 7.87350758 -0.08185404 7.87350758 -2 9 C-1.41196203 5.97580475 -0.77321882 2.98241547 0 0 Z " fill="#CB7D75" transform="translate(63,124)"/>
<path d="M0 0 C0.99 0 1.98 0 3 0 C3.433125 1.051875 3.86625 2.10375 4.3125 3.1875 C5.63870541 6.29460982 7.1832976 9.14518195 9 12 C6.05043472 10.63055898 3.47531189 9.12169591 1 7 C1 6.34 1 5.68 1 5 C0.34 5 -0.32 5 -1 5 C-0.67 3.35 -0.34 1.7 0 0 Z " fill="#C3695E" transform="translate(52,125)"/>
<path d="M0 0 C0.33 0 0.66 0 1 0 C1.10807131 1.93627769 1.1856225 3.87427756 1.25 5.8125 C1.29640625 6.89144531 1.3428125 7.97039062 1.390625 9.08203125 C1 12 1 12 -1.015625 13.88671875 C-1.67046875 14.25410156 -2.3253125 14.62148437 -3 15 C-3 14.01 -3 13.02 -3 12 C-3.66 12 -4.32 12 -5 12 C-5.33 11.01 -5.66 10.02 -6 9 C-5.67 8.34 -5.34 7.68 -5 7 C-2.9375 6.375 -2.9375 6.375 -1 6 C-0.67 4.02 -0.34 2.04 0 0 Z " fill="#D9A297" transform="translate(250,139)"/>
<path d="M0 0 C3.21079428 1.03204102 4.59940291 2.58748662 6.3125 5.375 C8 9 8 9 7.75 11.4375 C7.5025 11.953125 7.255 12.46875 7 13 C6.34 13 5.68 13 5 13 C4.35309078 11.3962669 3.70751236 9.79199694 3.0625 8.1875 C2.70285156 7.29417969 2.34320313 6.40085938 1.97265625 5.48046875 C1.26386514 3.6729091 0.6139753 1.84192591 0 0 Z " fill="#BE5D52" transform="translate(73,139)"/>
<path d="M0 0 C0.99 0.33 1.98 0.66 3 1 C1.68 4.3 0.36 7.6 -1 11 C-1.99 11 -2.98 11 -4 11 C-4.6875 9.3125 -4.6875 9.3125 -5 7 C-3.6875 4.25 -3.6875 4.25 -2 2 C-1.34 2 -0.68 2 0 2 C0 1.34 0 0.68 0 0 Z " fill="#DCB77F" transform="translate(100,158)"/>
<path d="M0 0 C0.33 0.99 0.66 1.98 1 3 C0.01 3 -0.98 3 -2 3 C-2.33 3.99 -2.66 4.98 -3 6 C-3.5775 5.814375 -4.155 5.62875 -4.75 5.4375 C-7.20692525 4.95976454 -8.64397534 5.24270636 -11 6 C-10 3 -10 3 -7.75 1.3125 C-4.8635748 -0.06511203 -3.14826764 -0.26985151 0 0 Z " fill="#D08B7D" transform="translate(245,145)"/>
<path d="M0 0 C0.99 0.33 1.98 0.66 3 1 C2.67 5.29 2.34 9.58 2 14 C1.67 14 1.34 14 1 14 C1 10.37 1 6.74 1 3 C-2.63 3.33 -6.26 3.66 -10 4 C-9.67 3.34 -9.34 2.68 -9 2 C-7.1875 1.62109375 -7.1875 1.62109375 -5 1.4375 C-2.21067942 1.37334592 -2.21067942 1.37334592 0 0 Z " fill="#C06156" transform="translate(248,135)"/>
<path d="M0 0 C0.99 0 1.98 0 3 0 C2.38909774 6.47556391 2.38909774 6.47556391 0.5625 8.9375 C-1 10 -1 10 -3 10 C-2.69201674 8.51988629 -2.378482 7.04092675 -2.0625 5.5625 C-1.88847656 4.73878906 -1.71445313 3.91507812 -1.53515625 3.06640625 C-1 1 -1 1 0 0 Z " fill="#C06155" transform="translate(81,124)"/>
<path d="M0 0 C1.53445094 3.06890187 0.54984289 5.70094266 0 9 C0.66 9 1.32 9 2 9 C2.33 7.02 2.66 5.04 3 3 C3.33 3 3.66 3 4 3 C4 5.31 4 7.62 4 10 C0.71023192 11.09658936 -0.71303767 10.79953138 -4 10 C-3.34 9.67 -2.68 9.34 -2 9 C-1.5720382 7.13690908 -1.5720382 7.13690908 -1.4375 5 C-1.09589041 1.09589041 -1.09589041 1.09589041 0 0 Z " fill="#D9A297" transform="translate(57,144)"/>
<path d="M0 0 C4.94515667 2.62711448 8.87775489 6.26645294 13 10 C12.67 10.66 12.34 11.32 12 12 C11.01 11.34 10.02 10.68 9 10 C8.67 10.99 8.34 11.98 8 13 C7.34 12.67 6.68 12.34 6 12 C6.268125 11.443125 6.53625 10.88625 6.8125 10.3125 C6.874375 9.549375 6.93625 8.78625 7 8 C4.53973429 5.12969001 2.14510786 3.09673857 -1 1 C-0.67 0.67 -0.34 0.34 0 0 Z " fill="#E5C9A3" transform="translate(136,131)"/>
<path d="M0 0 C4.11979807 1.37326602 7.04297546 4.08595092 9 8 C5.6936092 7.44893487 2.80017874 6.90012129 0 5 C-0.8125 2.9375 -0.8125 2.9375 -1 1 C-0.67 0.67 -0.34 0.34 0 0 Z " fill="#C9776B" transform="translate(48,129)"/>
<path d="M0 0 C0.556875 0.268125 1.11375 0.53625 1.6875 0.8125 C1.3575 1.8025 1.0275 2.7925 0.6875 3.8125 C0.3575 3.1525 0.0275 2.4925 -0.3125 1.8125 C-3.2825 4.2875 -3.2825 4.2875 -6.3125 6.8125 C-5.6525 7.4725 -4.9925 8.1325 -4.3125 8.8125 C-5.9625 9.4725 -7.6125 10.1325 -9.3125 10.8125 C-8.0966464 6.05961775 -5.84586916 -0.47398939 0 0 Z " fill="#DDAAA1" transform="translate(87.3125,128.1875)"/>
<path d="M0 0 C2 2 2 2 2.125 4.625 C2.08375 5.40875 2.0425 6.1925 2 7 C2.66 7 3.32 7 4 7 C4 7.66 4 8.32 4 9 C1.125 9.125 1.125 9.125 -2 9 C-4 7 -4 7 -4.125 3.875 C-4.08375 2.92625 -4.0425 1.9775 -4 1 C-2 3 -2 3 -2 7 C-1.34 6.67 -0.68 6.34 0 6 C0 4.02 0 2.04 0 0 Z " fill="#D9A296" transform="translate(80,145)"/>
<path d="M0 0 C1.5 1.0625 1.5 1.0625 3 3 C3.1875 6.6875 3.1875 6.6875 3 10 C1.35 9.67 -0.3 9.34 -2 9 C-1.7215625 7.824375 -1.7215625 7.824375 -1.4375 6.625 C-0.74037734 4.02910225 -0.74037734 4.02910225 -2 2 C-1.34 2 -0.68 2 0 2 C0 1.34 0 0.68 0 0 Z " fill="#E3C69C" transform="translate(169,131)"/>
<path d="M0 0 C0.66 0.99 1.32 1.98 2 3 C1.01 3.495 1.01 3.495 0 4 C-0.99 5.485 -0.99 5.485 -2 7 C-3.65 6.67 -5.3 6.34 -7 6 C-7.33 5.01 -7.66 4.02 -8 3 C-7 2 -7 2 -3.4375 1.9375 C-2.303125 1.958125 -1.16875 1.97875 0 2 C0 1.34 0 0.68 0 0 Z " fill="#E8C6C2" transform="translate(72,130)"/>
<path d="M0 0 C0.33 0 0.66 0 1 0 C2.14507772 5.19689119 2.14507772 5.19689119 2 8 C-0.4375 11 -0.4375 11 -3 13 C-3.66 10.03 -4.32 7.06 -5 4 C-4.34 4 -3.68 4 -3 4 C-2.01 5.485 -2.01 5.485 -1 7 C-0.67 4.69 -0.34 2.38 0 0 Z " fill="#E8C7BE" transform="translate(78,122)"/>
<path d="M0 0 C4.875 4.625 4.875 4.625 6 8 C4.68 7.67 3.36 7.34 2 7 C1.34 8.32 0.68 9.64 0 11 C-1.26026798 8.47946405 -0.91874445 7.1457902 -0.5625 4.375 C-0.46066406 3.55773437 -0.35882813 2.74046875 -0.25390625 1.8984375 C-0.17011719 1.27195313 -0.08632812 0.64546875 0 0 Z " fill="#DCB880" transform="translate(71,165)"/>
<path d="M0 0 C1.98 0.99 1.98 0.99 4 2 C3.34 2 2.68 2 2 2 C2.33 3.32 2.66 4.64 3 6 C4.65 6.33 6.3 6.66 8 7 C7.34 7.66 6.68 8.32 6 9 C2.875 8.625 2.875 8.625 0 8 C0 5.36 0 2.72 0 0 Z " fill="#C56D64" transform="translate(245,171)"/>
<path d="M0 0 C0.33 0 0.66 0 1 0 C1.19627391 1.58226965 1.38165538 3.16589271 1.5625 4.75 C1.66691406 5.63171875 1.77132812 6.5134375 1.87890625 7.421875 C1.99456676 9.88432451 1.73638695 11.66538064 1 14 C-0.32 13.67 -1.64 13.34 -3 13 C-2.690625 12.34 -2.38125 11.68 -2.0625 11 C-0.75039745 7.29523985 -0.39735865 3.90736009 0 0 Z " fill="#E3C59B" transform="translate(70,155)"/>
<path d="M0 0 C1.32 0 2.64 0 4 0 C4.33 1.32 4.66 2.64 5 4 C4.34 4 3.68 4 3 4 C2.67 4.99 2.34 5.98 2 7 C1.34 6.34 0.68 5.68 0 5 C-0.33 5.66 -0.66 6.32 -1 7 C-1.66 6.67 -2.32 6.34 -3 6 C-2.01 4.02 -1.02 2.04 0 0 Z " fill="#E3C49A" transform="translate(102,159)"/>
<path d="M0 0 C0.66 0 1.32 0 2 0 C2.07347656 1.06541016 2.07347656 1.06541016 2.1484375 2.15234375 C2.22320312 3.07144531 2.29796875 3.99054688 2.375 4.9375 C2.44460937 5.85402344 2.51421875 6.77054688 2.5859375 7.71484375 C2.72257812 8.46894531 2.85921875 9.22304687 3 10 C3.66 10.33 4.32 10.66 5 11 C5 11.99 5 12.98 5 14 C4.01 14 3.02 14 2 14 C-0.28062828 10.57905758 -0.21925007 9.31812778 -0.125 5.3125 C-0.10695312 4.31863281 -0.08890625 3.32476562 -0.0703125 2.30078125 C-0.04710937 1.54152344 -0.02390625 0.78226563 0 0 Z " fill="#D29086" transform="translate(62,143)"/>
<path d="M0 0 C2.64 0.33 5.28 0.66 8 1 C7.34 3.31 6.68 5.62 6 8 C5.01 7.67 4.02 7.34 3 7 C3 6.01 3 5.02 3 4 C2.34 3.67 1.68 3.34 1 3 C1 3.66 1 4.32 1 5 C0.34 4.67 -0.32 4.34 -1 4 C-0.67 2.68 -0.34 1.36 0 0 Z " fill="#EACFBE" transform="translate(64,137)"/>
<path d="M0 0 C1.32 0 2.64 0 4 0 C3.67 3.3 3.34 6.6 3 10 C-0.16130459 5.78492722 -0.3367697 4.93928888 0 0 Z " fill="#BC554A" transform="translate(57,122)"/>
<path d="M0 0 C-0.33 1.98 -0.66 3.96 -1 6 C-1.66 5.01 -2.32 4.02 -3 3 C-3.99 3.495 -3.99 3.495 -5 4 C-7.04055005 4.07065617 -9.08334257 4.08421976 -11.125 4.0625 C-12.22070312 4.05347656 -13.31640625 4.04445312 -14.4453125 4.03515625 C-15.70988281 4.01775391 -15.70988281 4.01775391 -17 4 C-17 3.67 -17 3.34 -17 3 C-16.25234375 2.95101562 -15.5046875 2.90203125 -14.734375 2.8515625 C-13.74953125 2.77679688 -12.7646875 2.70203125 -11.75 2.625 C-10.28820312 2.52058594 -10.28820312 2.52058594 -8.796875 2.4140625 C-5.60512397 1.9415407 -3.13732834 0 0 0 Z " fill="#E5C9A0" transform="translate(98,153)"/>
<path d="M0 0 C0.33 0.99 0.66 1.98 1 3 C1.99 3.33 2.98 3.66 4 4 C3.67 4.33 3.34 4.66 3 5 C3.33 5.99 3.66 6.98 4 8 C3.34 8.66 2.68 9.32 2 10 C1.67 9.34 1.34 8.68 1 8 C0.34 8.99 -0.32 9.98 -1 11 C-1.0270043 9.54176788 -1.04639787 8.08339325 -1.0625 6.625 C-1.07410156 5.81289062 -1.08570312 5.00078125 -1.09765625 4.1640625 C-1 2 -1 2 0 0 Z " fill="#E6CBA5" transform="translate(104,123)"/>
<path d="M0 0 C0.33 0.99 0.66 1.98 1 3 C0.01 3.33 -0.98 3.66 -2 4 C-2.33 5.98 -2.66 7.96 -3 10 C-5.29013653 6.5647952 -5.17842973 5.014669 -5 1 C-3.35 0.67 -1.7 0.34 0 0 Z " fill="#CD8F5E" transform="translate(73,153)"/>
<path d="M0 0 C0.99 0.33 1.98 0.66 3 1 C3.25 7.625 3.25 7.625 1 11 C-0.17571451 7.32589215 -0.07366746 3.83070817 0 0 Z " fill="#BA5247" transform="translate(75,121)"/>
<path d="M0 0 C0.66 0.33 1.32 0.66 2 1 C0.515 4.96 0.515 4.96 -1 9 C-1.66 8.67 -2.32 8.34 -3 8 C-3.36923077 3.44615385 -3.36923077 3.44615385 -1.5 1.1875 C-1.005 0.795625 -0.51 0.40375 0 0 Z " fill="#B95045" transform="translate(52,142)"/>
<path d="M0 0 C-0.7115625 0.6496875 -0.7115625 0.6496875 -1.4375 1.3125 C-3.23686957 3.02309613 -3.23686957 3.02309613 -4 6 C-4.99 6 -5.98 6 -7 6 C-6.75 3.625 -6.75 3.625 -6 1 C-2.69333333 -1.34666667 -2.69333333 -1.34666667 0 0 Z " fill="#C57062" transform="translate(51,142)"/>
<path d="M0 0 C1.875 0.125 1.875 0.125 4 1 C5.25 4.0625 5.25 4.0625 6 7 C3.53199953 5.84826645 1.95216435 4.95216435 0 3 C0 2.01 0 1.02 0 0 Z " fill="#C77467" transform="translate(86,138)"/>
<path d="M0 0 C0.33 0.66 0.66 1.32 1 2 C0.67 2.66 0.34 3.32 0 4 C2.64 4 5.28 4 8 4 C8 4.33 8 4.66 8 5 C4.37 5 0.74 5 -3 5 C-3.33 4.01 -3.66 3.02 -4 2 C-2.68 1.34 -1.36 0.68 0 0 Z " fill="#F2E0D5" transform="translate(78,135)"/>
<path d="M0 0 C4.455 0.99 4.455 0.99 9 2 C8.67 2.66 8.34 3.32 8 4 C5.36 4 2.72 4 0 4 C0 2.68 0 1.36 0 0 Z " fill="#BE5A4F" transform="translate(49,136)"/>
<path d="M0 0 C2.0625 0.4375 2.0625 0.4375 4 1 C4 1.66 4 2.32 4 3 C5.65 3.33 7.3 3.66 9 4 C9 4.33 9 4.66 9 5 C5.6875 5.25 5.6875 5.25 2 5 C0.0625 3 0.0625 3 -1 1 C-0.67 0.67 -0.34 0.34 0 0 Z " fill="#CD8279" transform="translate(63,133)"/>
<path d="M0 0 C0.33 0.66 0.66 1.32 1 2 C1.66 2.33 2.32 2.66 3 3 C3 3.66 3 4.32 3 5 C0.69 5 -1.62 5 -4 5 C-4 4.01 -4 3.02 -4 2 C-2.68 2 -1.36 2 0 2 C0 1.34 0 0.68 0 0 Z " fill="#C77369" transform="translate(240,161)"/>
<path d="M0 0 C-0.3125 1.875 -0.3125 1.875 -1 4 C-1.99 4.66 -2.98 5.32 -4 6 C-4.99 5.67 -5.98 5.34 -7 5 C-2.25 0 -2.25 0 0 0 Z " fill="#BE5B50" transform="translate(87,130)"/>
<path d="M0 0 C1.27351308 2.54702616 0.80191925 3.4282945 0.0625 6.125 C-0.13214844 6.84945312 -0.32679687 7.57390625 -0.52734375 8.3203125 C-0.68332031 8.87460938 -0.83929688 9.42890625 -1 10 C-1.66 10 -2.32 10 -3 10 C-2.25 3.375 -2.25 3.375 0 0 Z " fill="#BB5449" transform="translate(56,143)"/>
<path d="M0 0 C0.66 0 1.32 0 2 0 C4.29013653 3.4352048 4.17842973 4.985331 4 9 C3.34 9 2.68 9 2 9 C1.34 6.03 0.68 3.06 0 0 Z " fill="#B84D42" transform="translate(80,143)"/>
<path d="M0 0 C1.98 0.495 1.98 0.495 4 1 C3.34 1 2.68 1 2 1 C1.67 3.31 1.34 5.62 1 8 C0.34 8 -0.32 8 -1 8 C-1.125 2.25 -1.125 2.25 0 0 Z " fill="#C16559" transform="translate(65,140)"/>
<path d="M0 0 C1.65 0 3.3 0 5 0 C4.01 0.495 4.01 0.495 3 1 C3 1.99 3 2.98 3 4 C1.68 4.33 0.36 4.66 -1 5 C-1 2 -1 2 0 0 Z " fill="#D8A092" transform="translate(244,138)"/>
<path d="M0 0 C1.52299523 2.93720508 2.80100302 5.9168649 4 9 C3.01 9.495 3.01 9.495 2 10 C-1.07692308 5.69230769 -1.07692308 5.69230769 -0.6875 2.1875 C-0.460625 1.465625 -0.23375 0.74375 0 0 Z " fill="#E2B8AB" transform="translate(56,124)"/>
<path d="M0 0 C0.99 0.33 1.98 0.66 3 1 C2.67 3.64 2.34 6.28 2 9 C1.67 9 1.34 9 1 9 C0.67 6.03 0.34 3.06 0 0 Z " fill="#E4C79D" transform="translate(230,154)"/>
<path d="M0 0 C0.99 0 1.98 0 3 0 C3.33 1.65 3.66 3.3 4 5 C3.01 5.33 2.02 5.66 1 6 C0.67 4.02 0.34 2.04 0 0 Z " fill="#B6483D" transform="translate(77,146)"/>
<path d="M0 0 C1.32 0.66 2.64 1.32 4 2 C3.01 2.495 3.01 2.495 2 3 C2 3.99 2 4.98 2 6 C1.34 6 0.68 6 0 6 C0 5.01 0 4.02 0 3 C-0.66 2.67 -1.32 2.34 -2 2 C-1.34 1.34 -0.68 0.68 0 0 Z " fill="#EDD1CE" transform="translate(67,123)"/>
</svg>
