<?xml version="1.0" encoding="UTF-8"?>
<svg version="1.1" xmlns="http://www.w3.org/2000/svg" width="225" height="225">
<path d="M0 0 C1.19625 0.32871094 2.3925 0.65742187 3.625 0.99609375 C33.31438433 9.93383549 56.44785307 30.4537695 71.25 57.375 C75.09249158 64.6536378 77.78449651 72.06111248 80 80 C80.3196875 81.07507813 80.639375 82.15015625 80.96875 83.2578125 C85.32120162 100.62731849 85.09730715 121.83012327 80 139 C79.67128906 140.19625 79.34257812 141.3925 79.00390625 142.625 C70.06616451 172.31438433 49.5462305 195.44785307 22.625 210.25 C15.3463622 214.09249158 7.93888752 216.78449651 0 219 C-1.07507813 219.3196875 -2.15015625 219.639375 -3.2578125 219.96875 C-20.62731849 224.32120162 -41.83012327 224.09730715 -59 219 C-60.794375 218.50693359 -60.794375 218.50693359 -62.625 218.00390625 C-92.31438433 209.06616451 -115.44785307 188.5462305 -130.25 161.625 C-134.09249158 154.3463622 -136.78449651 146.93888752 -139 139 C-139.47953125 137.38738281 -139.47953125 137.38738281 -139.96875 135.7421875 C-144.32120162 118.37268151 -144.09730715 97.16987673 -139 80 C-138.67128906 78.80375 -138.34257812 77.6075 -138.00390625 76.375 C-129.06616451 46.68561567 -108.5462305 23.55214693 -81.625 8.75 C-74.3463622 4.90750842 -66.93888752 2.21550349 -59 0 C-57.92492187 -0.3196875 -56.84984375 -0.639375 -55.7421875 -0.96875 C-38.37268151 -5.32120162 -17.16987673 -5.09730715 0 0 Z " fill="#FDFDFE" transform="translate(142,3)"/>
<path d="M0 0 C0.20313659 7.01040027 0.34305897 14.02004013 0.43945312 21.03271484 C0.47964151 23.41711791 0.53420392 25.80132435 0.60351562 28.18505859 C0.70076766 31.61605312 0.74597374 35.0444395 0.78125 38.4765625 C0.82254028 39.53928375 0.86383057 40.602005 0.90637207 41.69692993 C0.91077059 48.98051518 0.91077059 48.98051518 -1.75540161 51.9649353 C-3.77350097 53.47318278 -5.82801808 54.72970177 -8 56 C-10.20636307 58.22879396 -10.20636307 58.22879396 -11.875 60.375 C-13.5546875 62.4609375 -13.5546875 62.4609375 -15 64 C-15.66 64 -16.32 64 -17 64 C-17.38450574 57.29820729 -17.64462922 50.5993031 -17.82397461 43.88891602 C-17.89881039 41.61374733 -18.00073464 39.33928528 -18.1315918 37.06665039 C-19.24545864 17.20487575 -19.24545864 17.20487575 -13.66455078 10.06298828 C-4.3681799 0 -4.3681799 0 0 0 Z " fill="#14298B" transform="translate(52,79)"/>
<path d="M0 0 C2.64 0 5.28 0 8 0 C8 0.66 8 1.32 8 2 C8.83337891 1.51080078 8.83337891 1.51080078 9.68359375 1.01171875 C12.33582971 -0.14667773 14.18180918 -0.23529427 17.0625 -0.1875 C18.34833984 -0.17783203 18.34833984 -0.17783203 19.66015625 -0.16796875 C22 0 22 0 25 1 C25.66 0.67 26.32 0.34 27 0 C29.0234375 -0.203125 29.0234375 -0.203125 31.375 -0.25 C32.53128906 -0.28867188 32.53128906 -0.28867188 33.7109375 -0.328125 C36.65183102 0.09343653 37.86480689 0.94322107 40 3 C40.45410156 5.4519043 40.45410156 5.4519043 40.390625 8.32421875 C40.37773437 9.35224609 40.36484375 10.38027344 40.3515625 11.43945312 C40.31804687 12.51130859 40.28453125 13.58316406 40.25 14.6875 C40.23195312 15.77095703 40.21390625 16.85441406 40.1953125 17.97070312 C40.14813508 20.64802146 40.08232249 23.32356909 40 26 C37.36 26 34.72 26 32 26 C31.67 20.06 31.34 14.12 31 8 C28.03 7.505 28.03 7.505 25 7 C25 13.6 25 20.2 25 27 C22.03 27 19.06 27 16 27 C16 20.73 16 14.46 16 8 C13.69 8 11.38 8 9 8 C9 14.27 9 20.54 9 27 C6.03 27 3.06 27 0 27 C0 18.09 0 9.18 0 0 Z " fill="#444D57" transform="translate(143,100)"/>
<path d="M0 0 C2.97 0 5.94 0 9 0 C10.65 4.95 12.3 9.9 14 15 C15.65 10.05 17.3 5.1 19 0 C21.97 0 24.94 0 28 0 C27.48821924 4.09424609 26.46582127 7.69124187 24.94921875 11.5234375 C24.2024688 13.47174806 23.50741081 15.43987609 22.83203125 17.4140625 C22.41308594 18.63867188 21.99414062 19.86328125 21.5625 21.125 C21.17191406 22.28257813 20.78132813 23.44015625 20.37890625 24.6328125 C18.39471868 29.4780524 16.39156922 33.07228719 12 36 C9.73828125 36.1953125 9.73828125 36.1953125 7.3125 36.125 C6.50425781 36.10695312 5.69601563 36.08890625 4.86328125 36.0703125 C4.24839844 36.04710937 3.63351563 36.02390625 3 36 C3 33.36 3 30.72 3 28 C4.98 28 6.96 28 9 28 C7.96275098 22.50868164 6.63610812 17.96804992 4 13 C3.25065478 11.27948173 2.52285437 9.54947958 1.8125 7.8125 C1.46832031 6.97332031 1.12414062 6.13414063 0.76953125 5.26953125 C0 3 0 3 0 0 Z " fill="#444D57" transform="translate(185,100)"/>
<path d="M0 0 C2.60533132 29.54579318 2.60533132 29.54579318 -3.3046875 37.46484375 C-6.76296573 41.16153708 -10.61701844 44.44415817 -15 47 C-15.33 47 -15.66 47 -16 47 C-18.42910121 16.30790581 -18.42910121 16.30790581 -12.953125 8.69140625 C-4.9343306 0 -4.9343306 0 0 0 Z " fill="#152C8C" transform="translate(76,96)"/>
<path d="M0 0 C0.19893013 4.42887341 0.34344922 8.85533305 0.43945312 13.28735352 C0.47949646 14.79204633 0.53395384 16.29643149 0.60351562 17.80004883 C1.16763475 30.31436795 1.16763475 30.31436795 -1.69775391 34.45092773 C-3.71261536 36.18838073 -5.77264477 37.5548299 -8 39 C-9.69310586 40.84433947 -11.22648788 42.74874856 -12.7734375 44.71484375 C-13.38058594 45.35099609 -13.38058594 45.35099609 -14 46 C-14.66 46 -15.32 46 -16 46 C-18.42898535 16.3129944 -18.42898535 16.3129944 -12.953125 8.7578125 C-4.85740058 0 -4.85740058 0 0 0 Z " fill="#122A8B" transform="translate(27,80)"/>
<path d="M0 0 C2.97 0 5.94 0 9 0 C9.67220351 1.93558599 10.33758077 3.87354372 11 5.8125 C11.556875 7.43091797 11.556875 7.43091797 12.125 9.08203125 C13 12 13 12 13 15 C13.66 15 14.32 15 15 15 C15.04898438 14.41992188 15.09796875 13.83984375 15.1484375 13.2421875 C15.59649405 8.56076908 16.298021 4.42514541 18 0 C20.97 0 23.94 0 27 0 C25.21035578 10.05702239 21.69583152 27.63234305 13 34 C10.30078125 34.29296875 10.30078125 34.29296875 7.3125 34.1875 C6.31863281 34.16042969 5.32476562 34.13335937 4.30078125 34.10546875 C3.54152344 34.07066406 2.78226562 34.03585938 2 34 C1.95745644 32.00045254 1.95919217 29.99958364 2 28 C3 27 3 27 6.0625 26.9375 C7.5165625 26.9684375 7.5165625 26.9684375 9 27 C6.81601384 20.33309489 4.47995731 13.73115514 2.0859375 7.13671875 C1 4 1 4 0 0 Z " fill="#3F4852" transform="translate(113,101)"/>
<path d="M0 0 C2.97 0 5.94 0 9 0 C9 1.98 9 3.96 9 6 C10.98 6 12.96 6 15 6 C15 8.31 15 10.62 15 13 C13.02 13 11.04 13 9 13 C9 17.29 9 21.58 9 26 C11.64 26 14.28 26 17 26 C17 28.31 17 30.62 17 33 C14.91846065 33.13536022 12.83438794 33.23215465 10.75 33.3125 C9.58984375 33.37050781 8.4296875 33.42851563 7.234375 33.48828125 C4 33 4 33 1.59375 30.96875 C-0.38227363 27.28792168 -0.45206489 24.24822702 -0.25 20.1875 C-0.23195313 19.49462891 -0.21390625 18.80175781 -0.1953125 18.08789062 C-0.14851064 16.39132336 -0.07677624 14.69547524 0 13 C-0.99 13 -1.98 13 -3 13 C-3 10.69 -3 8.38 -3 6 C-2.01 6 -1.02 6 0 6 C0 4.02 0 2.04 0 0 Z " fill="#444E57" transform="translate(95,94)"/>
<path d="M0 0 C0.65576172 1.81152344 0.65576172 1.81152344 1 4 C-0.89736803 6.2958748 -2.71652235 8.23155781 -4.875 10.25 C-5.44347656 10.80429688 -6.01195312 11.35859375 -6.59765625 11.9296875 C-10.81834975 16 -10.81834975 16 -12 16 C-12 31.51 -12 47.02 -12 63 C-12.66 63 -13.32 63 -14 63 C-14.35849495 56.27964229 -14.60151802 49.56178622 -14.76904297 42.83398438 C-14.83894187 40.55212336 -14.93410957 38.27087783 -15.05615234 35.99121094 C-16.09850652 16.00253665 -16.09850652 16.00253665 -10.82128906 9.29003906 C-7.52129955 5.75010451 -3.92990404 2.81340368 0 0 Z " fill="#4E57A4" transform="translate(49,80)"/>
<path d="M0 0 C3.63 0 7.26 0 11 0 C11 8.91 11 17.82 11 27 C10.67 27 10.34 27 10 27 C9.67 20.07 9.34 13.14 9 6 C7.515 8.475 7.515 8.475 6 11 C5 9 5 9 5.55859375 7.0546875 C5.84863281 6.33539063 6.13867188 5.61609375 6.4375 4.875 C6.72496094 4.15054688 7.01242188 3.42609375 7.30859375 2.6796875 C7.65083984 1.84824219 7.65083984 1.84824219 8 1 C5.36 1 2.72 1 0 1 C0 0.67 0 0.34 0 0 Z " fill="#CBCED1" transform="translate(132,100)"/>
</svg>
